<svg id="Layer_1" data-name="Layer 1" xmlns="http://www.w3.org/2000/svg" viewBox="0 0 3240 2809.05"><defs><style>.cls-1{fill:#9900f0;}.cls-2{opacity:0.5;}.cls-3{fill:#fff;}.cls-4{opacity:0.25;}.cls-5{fill:#f94892;}.cls-6{fill:#313333;}.cls-7{fill:#757575;}.cls-8{fill:#29ed49;}.cls-9{fill:#f93082;}</style></defs><title>dj_alien</title><path class="cls-1" d="M350.7,1913.47H2792.4a60.72,60.72,0,0,1,51,27.77l368.91,571.08a60.74,60.74,0,0,1,6.3,53l-64.85,185.13a60.72,60.72,0,0,1-57.31,40.65H146.15a60.73,60.73,0,0,1-57.7-41.79L21,2543.66a60.77,60.77,0,0,1,3.26-45.82l272-550.55A60.71,60.71,0,0,1,350.7,1913.47Z"/><path d="M3096.46,2809.05H146.15a78.49,78.49,0,0,1-74.73-54.13L4,2549.25a78.2,78.2,0,0,1,4.22-59.35l272-550.55a78.17,78.17,0,0,1,70.51-43.81H2792.4a78.34,78.34,0,0,1,66.06,36l368.9,571.08a78.11,78.11,0,0,1,8.17,68.67l-64.85,185.13A78.74,78.74,0,0,1,3096.46,2809.05ZM350.7,1931.4a42.53,42.53,0,0,0-38.37,23.83l-272,550.55A42.54,42.54,0,0,0,38,2538.07l67.47,205.67a42.7,42.7,0,0,0,40.66,29.46H3096.46a42.85,42.85,0,0,0,40.38-28.65l64.85-185.13a42.53,42.53,0,0,0-4.44-37.37L2828.35,1951a42.63,42.63,0,0,0-35.95-19.57Z"/><g class="cls-2"><path class="cls-3" d="M2482,2543.74,87.1,2563.82l53.07,164.92s7.17,40.15,80.3,38.72c0,0-104.68,71.7-140.54-40.87S18.3,2530.26,18.3,2530.26Z"/></g><g class="cls-2"><polygon class="cls-3" points="1097.21 1972.39 2079.9 1965.1 2129.94 1912.75 1011.63 1913.47 1097.21 1972.39"/></g><path d="M3096.46,2808.33H146.15a78.48,78.48,0,0,1-74.73-54.13L4,2548.53a78.2,78.2,0,0,1,4.22-59.35l272-550.54a78.15,78.15,0,0,1,70.51-43.81H2792.4a78.36,78.36,0,0,1,66.06,36l368.9,571.08a78.11,78.11,0,0,1,8.17,68.67l-64.85,185.13A78.74,78.74,0,0,1,3096.46,2808.33ZM350.7,1930.68a42.52,42.52,0,0,0-38.37,23.84l-272,550.54a42.57,42.57,0,0,0-2.29,32.3L105.49,2743a42.7,42.7,0,0,0,40.66,29.46H3096.46a42.83,42.83,0,0,0,40.38-28.65l64.85-185.13a42.54,42.54,0,0,0-4.44-37.37l-368.9-571.08a42.65,42.65,0,0,0-35.95-19.57Z"/><rect x="13.97" y="2502.87" width="3215.19" height="35.85"/><g class="cls-4"><path d="M1209.85,2220.53c-25.07,153-310.95,224.89-501.46,225.3-181.95.38-467.6-64-501.46-225.3-13.07-62.26,19.89-138,58.14-185.32,46.32-57.3,110.44-83.28,138.09-94.48,33.1-13.41,73.13-23.7,79.94-25.43,7.28-1.86,34.1-8.56,72.68-14.54a938.28,938.28,0,0,1,130.81-10.9c92.49-1.24,161.4,11.36,178.06,14.54,25.46,4.85,52.61,10,87.21,21.8,26.77,9.11,92.13,31.36,145.35,76.31C1149.09,2046.33,1223.22,2138.93,1209.85,2220.53Z"/><path d="M706.69,2463.75c-104.25,0-220.27-19.82-310.75-53.12-118.7-43.69-190.12-108.15-206.55-186.41-14.26-67.93,20.73-149.54,61.74-200.28,49.23-60.91,116.55-88.18,145.3-99.82,32.46-13.15,71.16-23.38,82.25-26.2,12.58-3.2,39-9.39,74.35-14.87a957,957,0,0,1,133.32-11.11c84.3-1.13,150,8.81,181.65,14.85,25.24,4.81,53.84,10.26,89.63,22.44,28.54,9.71,95.35,32.45,151.14,79.58,15.2,12.84,53.87,48.22,84.59,99.3,29,48.19,40.79,95,34.18,135.32-12.36,75.48-81.54,139-200,183.75-93.25,35.2-212.53,56.34-319.06,56.57Zm-7.46-556q-6.13,0-12.4.08a920.45,920.45,0,0,0-128.31,10.7c-33.91,5.25-59,11.14-71,14.19-10.54,2.68-47.27,12.38-77.63,24.68-26.18,10.6-87.48,35.43-130.87,89.13-34.53,42.72-66.32,114.25-54.54,170.37,30.6,145.78,299.84,211.05,482.26,211.05h1.62c102.46-.22,217-20.5,306.47-54.26,50.49-19.06,91.29-41.62,121.28-67.07,32-27.13,50.83-57.05,56.05-88.94l17.69,2.9-17.69-2.9c6.59-40.23-12.42-82.59-29.52-111-19.4-32.26-48.19-66.05-77-90.39-50.62-42.76-112.94-64-139.55-73-33.42-11.37-59.54-16.35-84.8-21.17C838.09,1917.58,777.44,1907.7,699.23,1907.7Z"/></g><path class="cls-5" d="M1209.85,2190.42c-25.07,153-310.95,224.88-501.46,225.29-181.95.39-467.6-64-501.46-225.29-13.07-62.27,19.89-138,58.14-185.32,46.32-57.31,110.44-83.28,138.09-94.48,33.1-13.41,73.13-23.71,79.94-25.44,7.28-1.85,34.1-8.55,72.68-14.53a938.5,938.5,0,0,1,130.81-10.91c92.49-1.24,161.4,11.37,178.06,14.54,25.46,4.85,52.61,10,87.21,21.8,26.77,9.12,92.13,31.36,145.35,76.31C1149.09,2016.21,1223.22,2108.82,1209.85,2190.42Z"/><path d="M706.69,2433.64c-104.25,0-220.27-19.82-310.75-53.13-118.7-43.68-190.12-108.14-206.55-186.41-14.26-67.93,20.73-149.53,61.74-200.27,49.23-60.91,116.55-88.18,145.3-99.83,32.46-13.15,71.16-23.37,82.25-26.19,12.58-3.2,39-9.39,74.35-14.88a957,957,0,0,1,133.32-11.11c84.3-1.13,150,8.82,181.65,14.85,25.24,4.81,53.84,10.26,89.63,22.44,28.54,9.72,95.35,32.46,151.14,79.59,15.2,12.84,53.87,48.21,84.59,99.3,29,48.18,40.79,95,34.18,135.31-12.36,75.49-81.54,139-200,183.75-93.25,35.2-212.53,56.35-319.06,56.58Zm-7.46-556q-6.13,0-12.4.08a922,922,0,0,0-128.31,10.69c-33.91,5.26-59,11.15-71,14.19-10.54,2.68-47.27,12.38-77.63,24.68-26.18,10.61-87.48,35.44-130.87,89.13-34.53,42.72-66.32,114.26-54.54,170.37,30.6,145.78,299.84,211.06,482.26,211.06h1.62c102.46-.22,217-20.51,306.47-54.27,50.49-19.05,91.29-41.62,121.28-67.07,32-27.13,50.83-57,56.05-88.93l17.69,2.9-17.69-2.9c6.59-40.23-12.42-82.59-29.52-111-19.4-32.26-48.19-66-77-90.39-50.62-42.76-112.94-64-139.55-73-33.42-11.37-59.54-16.35-84.8-21.16C838.09,1887.47,777.44,1877.59,699.23,1877.59Z"/><g class="cls-2"><path class="cls-3" d="M259.19,2160.85s-34.41,170.65,327,222.28c0,0-470.68-5.62-360.82-312.57Z"/></g><path d="M706.69,2433.64c-104.25,0-220.27-19.82-310.75-53.13-118.7-43.68-190.12-108.14-206.55-186.41-14.26-67.93,20.73-149.53,61.74-200.27,49.23-60.91,116.55-88.18,145.3-99.83,32.46-13.15,71.16-23.37,82.25-26.19,12.58-3.2,39-9.39,74.35-14.88a957,957,0,0,1,133.32-11.11c84.3-1.13,150,8.82,181.65,14.85,25.24,4.81,53.84,10.26,89.63,22.44,28.54,9.72,95.35,32.46,151.14,79.59,15.2,12.84,53.87,48.21,84.59,99.3,29,48.18,40.79,95,34.18,135.31-12.36,75.49-81.54,139-200,183.75-93.25,35.2-212.53,56.35-319.06,56.58Zm-7.46-556q-6.13,0-12.4.08a922,922,0,0,0-128.31,10.69c-33.91,5.26-59,11.15-71,14.19-10.54,2.68-47.27,12.38-77.63,24.68-26.18,10.61-87.48,35.44-130.87,89.13-34.53,42.72-66.32,114.26-54.54,170.37,30.6,145.78,299.84,211.06,482.26,211.06h1.62c102.46-.22,217-20.51,306.47-54.27,50.49-19.05,91.29-41.62,121.28-67.07,32-27.13,50.83-57,56.05-88.93l17.69,2.9-17.69-2.9c6.59-40.23-12.42-82.59-29.52-111-19.4-32.26-48.19-66-77-90.39-50.62-42.76-112.94-64-139.55-73-33.42-11.37-59.54-16.35-84.8-21.16C838.09,1887.47,777.44,1877.59,699.23,1877.59Z"/><ellipse class="cls-6" cx="697.49" cy="2074.14" rx="454.22" ry="214.39"/><path d="M697.49,2306.45c-123.92,0-240.7-22.91-328.83-64.5-92.42-43.62-143.31-103.22-143.31-167.81S276.24,1950,368.66,1906.33c88.13-41.6,204.91-64.51,328.83-64.51s240.7,22.91,328.84,64.51c92.41,43.62,143.31,103.21,143.31,167.81s-50.9,124.19-143.31,167.81C938.19,2283.54,821.41,2306.45,697.49,2306.45Zm0-428.78c-118.73,0-230.08,21.69-313.53,61.08-39.54,18.66-70.37,40.16-91.64,63.9-20.65,23-31.12,47.09-31.12,71.49s10.47,48.44,31.12,71.48c21.27,23.74,52.1,45.24,91.64,63.9,83.45,39.39,194.8,61.08,313.53,61.08s230.09-21.69,313.53-61.08c39.54-18.66,70.38-40.16,91.65-63.9,20.65-23,31.12-47.09,31.12-71.48s-10.47-48.45-31.12-71.49c-21.27-23.74-52.11-45.24-91.65-63.9C927.57,1899.36,816.23,1877.67,697.49,1877.67Z"/><g class="cls-2"><path class="cls-3" d="M553.18,1895.54s-522,147.71-38.72,348.48c-156-7-264-98.7-265.31-172.08C247.71,1992.41,370.63,1883.52,553.18,1895.54Z"/></g><path d="M698.6,2306.39c-123.92,0-240.7-22.91-328.84-64.51-92.41-43.62-143.31-103.22-143.31-167.81s50.9-124.19,143.31-167.81c88.14-41.6,204.92-64.51,328.84-64.51s240.7,22.91,328.83,64.51c92.42,43.62,143.31,103.21,143.31,167.81s-50.89,124.19-143.31,167.81C939.3,2283.48,822.52,2306.39,698.6,2306.39Zm0-428.79c-118.74,0-230.09,21.69-313.53,61.08-39.54,18.66-70.38,40.16-91.65,63.9-20.65,23-31.12,47.09-31.12,71.49s10.47,48.44,31.12,71.49c21.27,23.73,52.11,45.23,91.65,63.9,83.44,39.38,194.79,61.07,313.53,61.07s230.08-21.69,313.53-61.07c39.54-18.67,70.37-40.17,91.64-63.9,20.65-23,31.12-47.1,31.12-71.49s-10.47-48.45-31.12-71.49c-21.27-23.74-52.1-45.24-91.64-63.9C928.68,1899.29,817.33,1877.6,698.6,1877.6Z"/><path class="cls-3" d="M795.66,2057.65c-5.09,31.07-63.14,45.67-101.83,45.75-37,.08-95-13-101.84-45.75-2.65-12.65,4-28,11.81-37.64,9.4-11.64,22.43-16.91,28-19.19a140.49,140.49,0,0,1,16.24-5.16c1.47-.38,6.92-1.74,14.75-3a191.23,191.23,0,0,1,26.57-2.22,185.13,185.13,0,0,1,36.16,3,121.41,121.41,0,0,1,17.71,4.43c5.44,1.85,18.71,6.37,29.52,15.5C783.32,2022.27,798.38,2041.07,795.66,2057.65Z"/><path d="M693.49,2112.72c-40.12,0-102.43-14.12-110.62-53.16-3.5-16.69,5.18-34.89,13.68-45.41,10.92-13.51,25.54-19.44,31.79-22a151.06,151.06,0,0,1,17.44-5.56c2.64-.67,8.19-2,15.63-3.13a201.6,201.6,0,0,1,27.86-2.32,193.35,193.35,0,0,1,38,3.12,129.06,129.06,0,0,1,19,4.76c6.09,2.07,20.37,6.93,32.52,17.2,11.33,9.57,29.57,31.48,26.06,52.9h0c-6.36,38.87-71.47,53.49-111,53.57ZM692,1999.8h-2.44a181.34,181.34,0,0,0-25.27,2.11c-6.66,1-11.56,2.18-13.88,2.77a132.1,132.1,0,0,0-15,4.77c-4.91,2-16.4,6.65-24.29,16.41-6.39,7.91-11.86,20.7-9.94,29.86,5.5,26.2,58.26,38.35,92.39,38.35h.31c40.9-.09,89-15.69,92.66-37.94h0c1.77-10.85-8.82-26.47-19.7-35.65-9.46-8-21.4-12.06-26.5-13.79a112.74,112.74,0,0,0-16.44-4.1A176.41,176.41,0,0,0,692,1999.8Z"/><path class="cls-3" d="M604.09,2049.71a42.34,42.34,0,0,0,4.3,15.77c11.13,22.23,38.68,26.08,42.3,26.53-1.05.37-25.31,8.29-43-7.17-18.67-16.31-15.44-44.38-11.72-45.54C597.11,2038.93,599.38,2040.88,604.09,2049.71Z"/><path d="M693.49,2112.72c-40.12,0-102.43-14.12-110.62-53.16-3.5-16.69,5.18-34.89,13.68-45.41,10.92-13.51,25.54-19.44,31.79-22a151.06,151.06,0,0,1,17.44-5.56c2.64-.67,8.19-2,15.63-3.13a201.6,201.6,0,0,1,27.86-2.32,193.35,193.35,0,0,1,38,3.12,129.06,129.06,0,0,1,19,4.76c6.09,2.07,20.37,6.93,32.52,17.2,11.33,9.57,29.57,31.48,26.06,52.9h0c-6.36,38.87-71.47,53.49-111,53.57ZM692,1999.8h-2.44a181.34,181.34,0,0,0-25.27,2.11c-6.66,1-11.56,2.18-13.88,2.77a132.1,132.1,0,0,0-15,4.77c-4.91,2-16.4,6.65-24.29,16.41-6.39,7.91-11.86,20.7-9.94,29.86,5.5,26.2,58.26,38.35,92.39,38.35h.31c40.9-.09,89-15.69,92.66-37.94h0c1.77-10.85-8.82-26.47-19.7-35.65-9.46-8-21.4-12.06-26.5-13.79a112.74,112.74,0,0,0-16.44-4.1A176.41,176.41,0,0,0,692,1999.8Z"/><ellipse class="cls-3" cx="693.05" cy="2034.03" rx="92.24" ry="43.54"/><path d="M693.05,2086.89c-57.9,0-101.57-22.72-101.57-52.86s43.67-52.86,101.57-52.86S794.61,2003.9,794.61,2034,751,2086.89,693.05,2086.89Zm0-87.08c-47.46,0-82.92,18.07-82.92,34.22s35.46,34.22,82.92,34.22S776,2050.18,776,2034,740.51,1999.81,693.05,1999.81Z"/><g class="cls-2"><path class="cls-3" d="M662.17,2000.23s-93.22,28.68-11.48,66c-29.76-2.2-48-24.72-45.89-40.16C606.94,2010.13,631.84,1992.59,662.17,2000.23Z"/></g><path d="M693.05,2086.89c-57.9,0-101.57-22.72-101.57-52.86s43.67-52.86,101.57-52.86S794.61,2003.9,794.61,2034,751,2086.89,693.05,2086.89Zm0-87.08c-47.46,0-82.92,18.07-82.92,34.22s35.46,34.22,82.92,34.22S776,2050.18,776,2034,740.51,1999.81,693.05,1999.81Z"/><path d="M337.24,2192a54.28,54.28,0,0,1,2.69,10.68,85.75,85.75,0,0,1,1,10.69,122.07,122.07,0,0,1-1.14,21.41c-.51,3.57-1.09,7.14-1.92,10.71a74.19,74.19,0,0,1-8.75,21.47A58.37,58.37,0,0,1,321,2277.7a58.07,58.07,0,0,1-8.35-10.63,74.06,74.06,0,0,1-9.09-21.33c-.89-3.55-1.52-7.12-2.09-10.68a122,122,0,0,1-1.48-21.38,87.84,87.84,0,0,1,.87-10.71,53.53,53.53,0,0,1,2.52-10.72Z"/><path d="M457.15,2250.12a53.59,53.59,0,0,1,2.69,10.68,87.71,87.71,0,0,1,1.05,10.69,122.08,122.08,0,0,1-1.15,21.41c-.51,3.57-1.08,7.14-1.92,10.71a75.46,75.46,0,0,1-3.38,10.73,76.77,76.77,0,0,1-5.36,10.74,58.45,58.45,0,0,1-8.19,10.76,58.07,58.07,0,0,1-8.35-10.63,73.76,73.76,0,0,1-9.08-21.32c-.9-3.56-1.53-7.13-2.09-10.69a121,121,0,0,1-1.49-21.38,87.84,87.84,0,0,1,.87-10.71,54.22,54.22,0,0,1,2.52-10.72Z"/><path d="M588,2279.19a54.28,54.28,0,0,1,2.69,10.68,87.89,87.89,0,0,1,1,10.69,122.07,122.07,0,0,1-1.14,21.41c-.51,3.57-1.09,7.14-1.92,10.71a74.19,74.19,0,0,1-8.75,21.47,58.37,58.37,0,0,1-8.18,10.76,58.58,58.58,0,0,1-8.36-10.63,77.26,77.26,0,0,1-5.52-10.65,74.61,74.61,0,0,1-3.56-10.67c-.89-3.56-1.52-7.13-2.09-10.69a122,122,0,0,1-1.48-21.38,87.84,87.84,0,0,1,.87-10.71,53.53,53.53,0,0,1,2.52-10.72Z"/><path d="M717.25,2293a53.59,53.59,0,0,1,2.69,10.68,87.71,87.71,0,0,1,1,10.69,122.08,122.08,0,0,1-1.15,21.41c-.51,3.57-1.08,7.14-1.92,10.71a75.46,75.46,0,0,1-3.38,10.73,76.77,76.77,0,0,1-5.36,10.74,58.45,58.45,0,0,1-8.19,10.76,58.07,58.07,0,0,1-8.35-10.63,73.76,73.76,0,0,1-9.08-21.32c-.9-3.56-1.53-7.13-2.09-10.69a121,121,0,0,1-1.49-21.38,87.84,87.84,0,0,1,.87-10.71,54.22,54.22,0,0,1,2.52-10.72Z"/><path d="M857.34,2280.63A54,54,0,0,1,860,2291.3a85.94,85.94,0,0,1,1,10.69,121.11,121.11,0,0,1-1.14,21.41c-.51,3.57-1.09,7.14-1.92,10.72a74.14,74.14,0,0,1-3.39,10.72,75.6,75.6,0,0,1-5.35,10.74,58.49,58.49,0,0,1-8.19,10.77,58.75,58.75,0,0,1-8.35-10.63,76.36,76.36,0,0,1-5.53-10.66,75,75,0,0,1-3.56-10.67c-.89-3.56-1.52-7.12-2.09-10.68a122.15,122.15,0,0,1-1.48-21.39,88,88,0,0,1,.87-10.71,54,54,0,0,1,2.52-10.71Z"/><path d="M998.86,2249.45a52.91,52.91,0,0,1,2.69,10.68,87.91,87.91,0,0,1,1.05,10.69,122.08,122.08,0,0,1-1.15,21.41c-.51,3.57-1.08,7.14-1.92,10.71a75.06,75.06,0,0,1-3.38,10.73,76.77,76.77,0,0,1-5.36,10.74,58.49,58.49,0,0,1-8.19,10.77,58.45,58.45,0,0,1-8.35-10.64,77.35,77.35,0,0,1-5.53-10.65,75.39,75.39,0,0,1-3.55-10.67c-.9-3.56-1.53-7.12-2.09-10.69a121,121,0,0,1-1.49-21.38,87.84,87.84,0,0,1,.87-10.71,54.94,54.94,0,0,1,2.52-10.72Z"/><path d="M1118.68,2182.14a54,54,0,0,1,2.69,10.67,86.1,86.1,0,0,1,1,10.7,122,122,0,0,1-1.14,21.4c-.51,3.57-1.09,7.14-1.92,10.72a73.75,73.75,0,0,1-3.39,10.72,77.33,77.33,0,0,1-5.35,10.75,58.45,58.45,0,0,1-8.19,10.76,58.41,58.41,0,0,1-8.35-10.63,75.81,75.81,0,0,1-5.53-10.66,75,75,0,0,1-3.56-10.67c-.89-3.56-1.52-7.12-2.09-10.68a122.08,122.08,0,0,1-1.48-21.39,87.68,87.68,0,0,1,.87-10.7,54.06,54.06,0,0,1,2.52-10.72Z"/><path d="M722.16,2033.4c0,6-13,10.9-29.07,10.9S664,2039.42,664,2033.4s13-10.9,29.07-10.9S722.16,2027.38,722.16,2033.4Z"/><path d="M1830.19,2396a25.1,25.1,0,0,1-24.66-20.62l-65.41-359.74a25.09,25.09,0,1,1,49.38-9l65.41,359.74a25.11,25.11,0,0,1-20.2,29.19A25.84,25.84,0,0,1,1830.19,2396Z"/><path d="M1609.08,2394.28a25.1,25.1,0,0,1-25.07-24.49l-8.78-358.35a25.1,25.1,0,0,1,24.47-25.7h.63a25.11,25.11,0,0,1,25.08,24.48l8.77,358.35a25.09,25.09,0,0,1-24.47,25.71Z"/><path d="M1405.09,2396c-.59,0-1.19,0-1.79-.06a25.11,25.11,0,0,1-23.27-26.81l25.44-359.74a25.1,25.1,0,0,1,50.07,3.54l-25.44,359.74A25.1,25.1,0,0,1,1405.09,2396Z"/><circle cx="182.62" cy="2617.96" r="38.15" transform="translate(-2427.43 2344.7) rotate(-80.03)"/><circle cx="327.46" cy="2617.96" r="38.15" transform="translate(-2223.03 1942.73) rotate(-68.04)"/><g class="cls-4"><path class="cls-7" d="M1682.1,2288.23v33a23.3,23.3,0,0,1-14.49,21.6,153.56,153.56,0,0,1-115.74,0,23.32,23.32,0,0,1-14.59-21.64v-35c3.49,17.43,34.59,31.08,72.45,31.08,36.46,0,66.66-12.65,72-29.16A.21.21,0,0,1,1682.1,2288.23Z"/><path d="M1609.65,2365a164,164,0,0,1-61.82-12.1,34,34,0,0,1-21.3-31.61v-35l21.3-2.11c1.83,9.17,24.93,22.43,61.89,22.43,35.74,0,58.81-12.6,61.72-21.69a11,11,0,0,1,21.42,3.35v33a33.89,33.89,0,0,1-21.2,31.56,164,164,0,0,1-59.55,12.12ZM1548,2314.16v7.08a12.54,12.54,0,0,0,7.86,11.67,142.75,142.75,0,0,0,107.67,0,12.47,12.47,0,0,0,7.77-11.63V2314c-15.19,8.79-37,14.07-61.62,14.07C1584.8,2328.08,1563.08,2322.88,1548,2314.16Zm143.89-22.72v0Z"/></g><path class="cls-3" d="M1682.1,2276.76v33a23.28,23.28,0,0,1-14.49,21.59,153.5,153.5,0,0,1-115.74,0,23.33,23.33,0,0,1-14.59-21.64v-35c3.49,17.44,34.59,31.08,72.45,31.08,36.46,0,66.66-12.65,72-29.16A.22.22,0,0,1,1682.1,2276.76Z"/><path d="M1609.65,2353.47a164,164,0,0,1-61.82-12.09,34,34,0,0,1-21.3-31.61v-35l21.3-2.1c1.83,9.16,24.93,22.43,61.89,22.43,35.74,0,58.81-12.6,61.72-21.69a11,11,0,0,1,21.42,3.35v33a33.9,33.9,0,0,1-21.2,31.56,164,164,0,0,1-59.55,12.12ZM1548,2302.68v7.09a12.55,12.55,0,0,0,7.86,11.67,142.75,142.75,0,0,0,107.67,0,12.47,12.47,0,0,0,7.77-11.63v-7.24c-15.19,8.79-37,14.07-61.62,14.07C1584.8,2316.61,1563.08,2311.41,1548,2302.68ZM1691.93,2280v0Z"/><g class="cls-2"><path class="cls-3" d="M1555.55,2290.22l-.09,22.21s-1.13,11.8,13.58,15c-8.52,1.44-13.57-.82-15.84-2.14-9.21-5.39-10.34-17.49-11.31-27.91a72.05,72.05,0,0,1,1.31-21.81Z"/></g><path d="M1609.65,2353.47a164,164,0,0,1-61.82-12.09,34,34,0,0,1-21.3-31.61v-35l21.3-2.1c1.83,9.16,24.93,22.43,61.89,22.43,35.74,0,58.81-12.6,61.72-21.69a11,11,0,0,1,21.42,3.35v33a33.9,33.9,0,0,1-21.2,31.56,164,164,0,0,1-59.55,12.12ZM1548,2302.68v7.09a12.55,12.55,0,0,0,7.86,11.67,142.75,142.75,0,0,0,107.67,0,12.47,12.47,0,0,0,7.77-11.63v-7.24c-15.19,8.79-37,14.07-61.62,14.07C1584.8,2316.61,1563.08,2311.41,1548,2302.68ZM1691.93,2280v0Z"/><path class="cls-3" d="M1682.51,2271.5a16.63,16.63,0,0,1-.41,3.66c-3.86,17.25-34.79,30.69-72.37,30.69-37.86,0-69-13.64-72.45-31.08a17,17,0,0,1-.33-3.27c0-19,32.59-34.35,72.78-34.35S1682.51,2252.53,1682.51,2271.5Z"/><path d="M1609.72,2316.61c-44.18,0-78.31-16.34-83-39.73a28,28,0,0,1-.53-5.38c0-25.71,35.91-45.1,83.52-45.1s83.54,19.39,83.54,45.1a27.12,27.12,0,0,1-.67,6C1687.45,2300.53,1653.37,2316.61,1609.72,2316.61Zm0-68.7c-37.85,0-62,14-62,23.59a6,6,0,0,0,.12,1.17c1.83,9.16,24.93,22.43,61.89,22.43,36.64,0,59.85-13.18,61.88-22.29a5.38,5.38,0,0,0,.15-1.31C1671.75,2261.88,1647.59,2247.91,1609.72,2247.91Z"/><g class="cls-2"><path class="cls-3" d="M1612.86,2247.08c-19,1.25-56.14,8.43-55.54,25.67.32,9.23,17,16.12,21.6,17.88-4-.18-20.62-1.29-30.55-11.79-2.45-2.59-6.41-6.78-5.65-11.8,1.46-9.74,19.54-14.79,28.28-17.23A106,106,0,0,1,1612.86,2247.08Z"/></g><path d="M1609.72,2316.61c-44.18,0-78.31-16.34-83-39.73a28,28,0,0,1-.53-5.38c0-25.71,35.91-45.1,83.52-45.1s83.54,19.39,83.54,45.1a27.12,27.12,0,0,1-.67,6C1687.45,2300.53,1653.37,2316.61,1609.72,2316.61Zm0-68.7c-37.85,0-62,14-62,23.59a6,6,0,0,0,.12,1.17c1.83,9.16,24.93,22.43,61.89,22.43,36.64,0,59.85-13.18,61.88-22.29a5.38,5.38,0,0,0,.15-1.31C1671.75,2261.88,1647.59,2247.91,1609.72,2247.91Z"/><g class="cls-4"><path d="M1639.11,2334.78s9.05-1.13,9.05-13.57a163.86,163.86,0,0,0-1.07-20.22l-.06-4.67s37.33-41.87-26-53.18c0,0,58.83-9,61.09,36.2v38.47S1659.47,2338.18,1639.11,2334.78Z"/></g><g class="cls-4"><path class="cls-7" d="M1858.49,2143.39v33A23.3,23.3,0,0,1,1844,2198a153.56,153.56,0,0,1-115.74,0,23.33,23.33,0,0,1-14.59-21.64v-35c3.49,17.44,34.59,31.08,72.45,31.08,36.46,0,66.66-12.65,72-29.16A.22.22,0,0,1,1858.49,2143.39Z"/><path d="M1786,2220.11a164,164,0,0,1-61.82-12.1,34,34,0,0,1-21.3-31.61v-35l21.3-2.1c1.83,9.16,24.93,22.43,61.9,22.43,35.73,0,58.8-12.6,61.71-21.69a11,11,0,0,1,21.42,3.35v33a33.89,33.89,0,0,1-21.2,31.56,164,164,0,0,1-59.55,12.12Zm-61.61-50.8v7.09a12.54,12.54,0,0,0,7.87,11.67,142.73,142.73,0,0,0,107.66,0,12.48,12.48,0,0,0,7.78-11.63v-7.24c-15.2,8.79-37.06,14.07-61.62,14.07C1761.19,2183.24,1739.47,2178,1724.43,2169.31Zm143.89-22.71v0Z"/></g><path class="cls-3" d="M1858.49,2131.92v33a23.28,23.28,0,0,1-14.49,21.59,153.5,153.5,0,0,1-115.74,0,23.34,23.34,0,0,1-14.59-21.64v-35c3.49,17.44,34.59,31.08,72.45,31.08,36.46,0,66.66-12.65,72-29.16A.22.22,0,0,1,1858.49,2131.92Z"/><path d="M1786,2208.63a164,164,0,0,1-61.82-12.09,34,34,0,0,1-21.3-31.61v-35l21.3-2.11c1.83,9.17,24.93,22.44,61.9,22.44,35.73,0,58.8-12.6,61.71-21.69a11,11,0,0,1,21.42,3.35v33a33.9,33.9,0,0,1-21.2,31.56,164.25,164.25,0,0,1-59.55,12.12Zm-61.61-50.79v7.09a12.55,12.55,0,0,0,7.87,11.67,142.73,142.73,0,0,0,107.66,0,12.49,12.49,0,0,0,7.78-11.63v-7.24c-15.2,8.79-37.06,14.07-61.62,14.07C1761.19,2171.77,1739.47,2166.57,1724.43,2157.84Zm143.89-22.71v0Z"/><g class="cls-2"><path class="cls-3" d="M1732,2145.38l-.1,22.2s-1.13,11.81,13.58,15c-8.52,1.44-13.57-.82-15.84-2.15-9.21-5.38-10.34-17.48-11.31-27.9a72.05,72.05,0,0,1,1.31-21.81Z"/></g><path d="M1786,2208.63a164,164,0,0,1-61.82-12.09,34,34,0,0,1-21.3-31.61v-35l21.3-2.11c1.83,9.17,24.93,22.44,61.9,22.44,35.73,0,58.8-12.6,61.71-21.69a11,11,0,0,1,21.42,3.35v33a33.9,33.9,0,0,1-21.2,31.56,164.25,164.25,0,0,1-59.55,12.12Zm-61.61-50.79v7.09a12.55,12.55,0,0,0,7.87,11.67,142.73,142.73,0,0,0,107.66,0,12.49,12.49,0,0,0,7.78-11.63v-7.24c-15.2,8.79-37.06,14.07-61.62,14.07C1761.19,2171.77,1739.47,2166.57,1724.43,2157.84Zm143.89-22.71v0Z"/><path class="cls-3" d="M1858.9,2126.66a16.63,16.63,0,0,1-.41,3.66c-3.86,17.25-34.79,30.69-72.37,30.69-37.86,0-69-13.64-72.45-31.08a17,17,0,0,1-.33-3.27c0-19,32.59-34.35,72.78-34.35S1858.9,2107.69,1858.9,2126.66Z"/><path d="M1786.12,2171.77c-44.19,0-78.32-16.34-83-39.73a27.35,27.35,0,0,1-.54-5.38c0-25.71,35.91-45.1,83.53-45.1s83.53,19.39,83.53,45.1a27.12,27.12,0,0,1-.67,6C1863.84,2155.69,1829.76,2171.77,1786.12,2171.77Zm0-68.7c-37.86,0-62,14-62,23.59a6,6,0,0,0,.12,1.17c1.83,9.16,24.93,22.43,61.9,22.43,36.63,0,59.84-13.18,61.87-22.29a5.38,5.38,0,0,0,.15-1.31C1848.14,2117,1824,2103.07,1786.12,2103.07Z"/><g class="cls-2"><path class="cls-3" d="M1789.25,2102.24c-19,1.25-56.14,8.43-55.54,25.67.33,9.23,17,16.12,21.6,17.88-4-.18-20.62-1.29-30.55-11.79-2.44-2.59-6.41-6.78-5.65-11.8,1.46-9.74,19.54-14.79,28.28-17.23A106,106,0,0,1,1789.25,2102.24Z"/></g><path d="M1786.12,2171.77c-44.19,0-78.32-16.34-83-39.73a27.35,27.35,0,0,1-.54-5.38c0-25.71,35.91-45.1,83.53-45.1s83.53,19.39,83.53,45.1a27.12,27.12,0,0,1-.67,6C1863.84,2155.69,1829.76,2171.77,1786.12,2171.77Zm0-68.7c-37.86,0-62,14-62,23.59a6,6,0,0,0,.12,1.17c1.83,9.16,24.93,22.43,61.9,22.43,36.63,0,59.84-13.18,61.87-22.29a5.38,5.38,0,0,0,.15-1.31C1848.14,2117,1824,2103.07,1786.12,2103.07Z"/><g class="cls-4"><path d="M1815.5,2189.94s9-1.13,9-13.58a163.78,163.78,0,0,0-1.07-20.21l-.06-4.68s37.33-41.86-26-53.17c0,0,58.83-9.05,61.09,36.2V2173S1835.86,2193.34,1815.5,2189.94Z"/></g><g class="cls-4"><path class="cls-7" d="M1492.8,2126.18v33a23.31,23.31,0,0,1-14.48,21.6,153.46,153.46,0,0,1-115.75,0,23.32,23.32,0,0,1-14.59-21.64v-35c3.49,17.43,34.59,31.08,72.45,31.08,36.46,0,66.66-12.65,72-29.16A.21.21,0,0,1,1492.8,2126.18Z"/><path d="M1420.35,2202.9a164,164,0,0,1-61.82-12.1,34,34,0,0,1-21.3-31.61v-35l21.3-2.11c1.83,9.17,24.93,22.43,61.9,22.43,35.73,0,58.8-12.6,61.71-21.69a11,11,0,0,1,21.42,3.35v33a33.9,33.9,0,0,1-21.2,31.56,164,164,0,0,1-59.54,12.12Zm-61.61-50.79v7.08a12.53,12.53,0,0,0,7.87,11.67,142.73,142.73,0,0,0,107.66,0,12.47,12.47,0,0,0,7.78-11.63V2152c-15.19,8.78-37.06,14.06-61.62,14.06C1395.5,2166,1373.78,2160.83,1358.74,2152.11Z"/></g><path class="cls-3" d="M1492.8,2114.71v33a23.28,23.28,0,0,1-14.48,21.59,153.52,153.52,0,0,1-115.75,0,23.33,23.33,0,0,1-14.59-21.64v-35c3.49,17.44,34.59,31.08,72.45,31.08,36.46,0,66.66-12.65,72-29.16A.21.21,0,0,1,1492.8,2114.71Z"/><path d="M1420.35,2191.43a164,164,0,0,1-61.82-12.1,34,34,0,0,1-21.3-31.61v-35l21.3-2.1c1.83,9.16,24.93,22.43,61.9,22.43,35.73,0,58.8-12.6,61.71-21.69a11,11,0,0,1,21.42,3.35v33a33.9,33.9,0,0,1-21.2,31.56,164,164,0,0,1-59.54,12.12Zm-61.61-50.8v7.09a12.54,12.54,0,0,0,7.87,11.67,142.73,142.73,0,0,0,107.66,0,12.47,12.47,0,0,0,7.78-11.63v-7.24c-15.19,8.79-37.06,14.07-61.62,14.07C1395.5,2154.56,1373.78,2149.36,1358.74,2140.63Z"/><g class="cls-2"><path class="cls-3" d="M1366.26,2128.17l-.09,22.21s-1.14,11.8,13.57,15c-8.52,1.44-13.57-.82-15.84-2.14-9.2-5.39-10.34-17.49-11.31-27.91a72.38,72.38,0,0,1,1.31-21.81Z"/></g><path d="M1420.35,2191.43a164,164,0,0,1-61.82-12.1,34,34,0,0,1-21.3-31.61v-35l21.3-2.1c1.83,9.16,24.93,22.43,61.9,22.43,35.73,0,58.8-12.6,61.71-21.69a11,11,0,0,1,21.42,3.35v33a33.9,33.9,0,0,1-21.2,31.56,164,164,0,0,1-59.54,12.12Zm-61.61-50.8v7.09a12.54,12.54,0,0,0,7.87,11.67,142.73,142.73,0,0,0,107.66,0,12.47,12.47,0,0,0,7.78-11.63v-7.24c-15.19,8.79-37.06,14.07-61.62,14.07C1395.5,2154.56,1373.78,2149.36,1358.74,2140.63Z"/><path class="cls-3" d="M1493.21,2109.45a16,16,0,0,1-.41,3.66c-3.85,17.25-34.79,30.69-72.37,30.69-37.86,0-69-13.64-72.45-31.08a17,17,0,0,1-.32-3.27c0-19,32.58-34.35,72.77-34.35S1493.21,2090.48,1493.21,2109.45Z"/><path d="M1420.43,2154.56c-44.19,0-78.32-16.34-83-39.73a27.2,27.2,0,0,1-.54-5.38c0-25.71,35.91-45.1,83.53-45.1s83.54,19.39,83.54,45.1a27.72,27.72,0,0,1-.67,6C1498.15,2138.48,1464.07,2154.56,1420.43,2154.56Zm0-68.7c-37.86,0-62,14-62,23.59a6,6,0,0,0,.12,1.17c1.83,9.16,24.93,22.43,61.9,22.43,36.63,0,59.84-13.18,61.88-22.29a5.92,5.92,0,0,0,.15-1.31C1482.46,2099.83,1458.29,2085.86,1420.43,2085.86Z"/><g class="cls-2"><path class="cls-3" d="M1423.56,2085c-19,1.25-56.14,8.43-55.54,25.67.33,9.23,17,16.12,21.6,17.88-4-.18-20.61-1.29-30.54-11.79-2.45-2.59-6.41-6.78-5.66-11.8,1.46-9.74,19.54-14.79,28.28-17.23A106,106,0,0,1,1423.56,2085Z"/></g><path d="M1420.43,2154.56c-44.19,0-78.32-16.34-83-39.73a27.2,27.2,0,0,1-.54-5.38c0-25.71,35.91-45.1,83.53-45.1s83.54,19.39,83.54,45.1a27.72,27.72,0,0,1-.67,6C1498.15,2138.48,1464.07,2154.56,1420.43,2154.56Zm0-68.7c-37.86,0-62,14-62,23.59a6,6,0,0,0,.12,1.17c1.83,9.16,24.93,22.43,61.9,22.43,36.63,0,59.84-13.18,61.88-22.29a5.92,5.92,0,0,0,.15-1.31C1482.46,2099.83,1458.29,2085.86,1420.43,2085.86Z"/><g class="cls-4"><path d="M1449.81,2172.73s9-1.13,9-13.57a163.86,163.86,0,0,0-1.07-20.22l-.06-4.67s37.34-41.87-26-53.18c0,0,58.83-9.05,61.09,36.2v38.47S1470.18,2176.13,1449.81,2172.73Z"/></g><g class="cls-4"><path class="cls-7" d="M276.71,2394.35v33a23.29,23.29,0,0,1-14.49,21.6,153.44,153.44,0,0,1-115.74,0,23.32,23.32,0,0,1-14.59-21.64v-35c3.49,17.43,34.59,31.08,72.45,31.08,36.46,0,66.66-12.65,72-29.16A.21.21,0,0,1,276.71,2394.35Z"/><path d="M204.26,2471.07a164,164,0,0,1-61.82-12.1,34,34,0,0,1-21.3-31.61v-35l21.3-2.11c1.83,9.17,24.93,22.43,61.9,22.43,35.73,0,58.8-12.6,61.71-21.69a11,11,0,0,1,21.42,3.35v33a33.89,33.89,0,0,1-21.2,31.56,164,164,0,0,1-59.55,12.12Zm-61.61-50.79v7.08a12.55,12.55,0,0,0,7.87,11.68,142.79,142.79,0,0,0,107.66,0,12.48,12.48,0,0,0,7.78-11.63v-7.23c-15.19,8.78-37.06,14.06-61.62,14.06C179.41,2434.2,157.69,2429,142.65,2420.28Z"/></g><path class="cls-3" d="M276.71,2382.88v33a23.3,23.3,0,0,1-14.49,21.6,153.56,153.56,0,0,1-115.74,0,23.33,23.33,0,0,1-14.59-21.64v-35c3.49,17.44,34.59,31.08,72.45,31.08,36.46,0,66.66-12.65,72-29.16A.22.22,0,0,1,276.71,2382.88Z"/><path d="M204.26,2459.6a164,164,0,0,1-61.82-12.1,34,34,0,0,1-21.3-31.61v-35l21.3-2.1c1.83,9.16,24.93,22.43,61.9,22.43,35.73,0,58.8-12.6,61.71-21.69a11,11,0,0,1,21.42,3.35v33a33.9,33.9,0,0,1-21.2,31.56,164,164,0,0,1-59.55,12.12Zm-61.61-50.8v7.09a12.54,12.54,0,0,0,7.87,11.67,142.73,142.73,0,0,0,107.66,0A12.48,12.48,0,0,0,266,2415.9v-7.23c-15.19,8.78-37.06,14.06-61.62,14.06C179.41,2422.73,157.69,2417.53,142.65,2408.8Z"/><g class="cls-2"><path class="cls-3" d="M150.17,2396.34l-.1,22.21s-1.13,11.8,13.58,15c-8.52,1.45-13.57-.81-15.84-2.14-9.2-5.39-10.34-17.49-11.31-27.91a72.05,72.05,0,0,1,1.31-21.81Z"/></g><path d="M204.26,2459.6a164,164,0,0,1-61.82-12.1,34,34,0,0,1-21.3-31.61v-35l21.3-2.1c1.83,9.16,24.93,22.43,61.9,22.43,35.73,0,58.8-12.6,61.71-21.69a11,11,0,0,1,21.42,3.35v33a33.9,33.9,0,0,1-21.2,31.56,164,164,0,0,1-59.55,12.12Zm-61.61-50.8v7.09a12.54,12.54,0,0,0,7.87,11.67,142.73,142.73,0,0,0,107.66,0A12.48,12.48,0,0,0,266,2415.9v-7.23c-15.19,8.78-37.06,14.06-61.62,14.06C179.41,2422.73,157.69,2417.53,142.65,2408.8Z"/><path class="cls-3" d="M277.12,2377.62a16.63,16.63,0,0,1-.41,3.66c-3.86,17.25-34.79,30.69-72.37,30.69-37.86,0-69-13.64-72.45-31.08a17,17,0,0,1-.33-3.27c0-19,32.59-34.34,72.78-34.34S277.12,2358.65,277.12,2377.62Z"/><path d="M204.34,2422.73c-44.19,0-78.32-16.34-83-39.73a27.2,27.2,0,0,1-.54-5.38c0-25.71,35.91-45.1,83.53-45.1s83.53,19.39,83.53,45.1a27.12,27.12,0,0,1-.67,6C282.06,2406.65,248,2422.73,204.34,2422.73Zm0-68.7c-37.86,0-62,14-62,23.59a6,6,0,0,0,.12,1.17c1.83,9.16,24.93,22.43,61.9,22.43,36.63,0,59.84-13.18,61.88-22.29a5.84,5.84,0,0,0,.14-1.31C266.36,2368,242.2,2354,204.34,2354Z"/><g class="cls-2"><path class="cls-3" d="M207.47,2353.21c-19,1.24-56.14,8.42-55.54,25.67.33,9.22,17,16.11,21.6,17.87-4-.18-20.62-1.29-30.55-11.79-2.44-2.59-6.4-6.78-5.65-11.8,1.46-9.74,19.54-14.79,28.28-17.23A105.83,105.83,0,0,1,207.47,2353.21Z"/></g><path d="M204.34,2422.73c-44.19,0-78.32-16.34-83-39.73a27.2,27.2,0,0,1-.54-5.38c0-25.71,35.91-45.1,83.53-45.1s83.53,19.39,83.53,45.1a27.12,27.12,0,0,1-.67,6C282.06,2406.65,248,2422.73,204.34,2422.73Zm0-68.7c-37.86,0-62,14-62,23.59a6,6,0,0,0,.12,1.17c1.83,9.16,24.93,22.43,61.9,22.43,36.63,0,59.84-13.18,61.88-22.29a5.84,5.84,0,0,0,.14-1.31C266.36,2368,242.2,2354,204.34,2354Z"/><g class="cls-4"><path d="M233.72,2440.9s9.05-1.13,9.05-13.57a163.86,163.86,0,0,0-1.07-20.22l-.06-4.67s37.33-41.87-26-53.18c0,0,58.83-9.05,61.09,36.21v38.46S254.08,2444.3,233.72,2440.9Z"/></g><g class="cls-4"><path class="cls-7" d="M3076,2385.75v33a23.28,23.28,0,0,1-14.49,21.59,153.52,153.52,0,0,1-115.75,0,23.34,23.34,0,0,1-14.58-21.64v-35c3.48,17.44,34.59,31.08,72.44,31.08,36.46,0,66.67-12.65,72-29.16A.22.22,0,0,1,3076,2385.75Z"/><path d="M3003.57,2462.46a163.94,163.94,0,0,1-61.82-12.09,34,34,0,0,1-21.31-31.61v-35l21.31-2.1c1.83,9.16,24.92,22.43,61.89,22.43,35.73,0,58.8-12.6,61.72-21.69a11,11,0,0,1,21.41,3.35v33a33.91,33.91,0,0,1-21.19,31.56,164.09,164.09,0,0,1-59.55,12.12ZM2942,2411.67v7.09a12.55,12.55,0,0,0,7.87,11.67,142.73,142.73,0,0,0,107.66,0,12.47,12.47,0,0,0,7.78-11.63v-7.24c-15.19,8.79-37.06,14.07-61.62,14.07C2978.72,2425.6,2957,2420.4,2942,2411.67Zm143.9-22.71,0,0Z"/></g><path class="cls-3" d="M3076,2374.28v33a23.28,23.28,0,0,1-14.49,21.59,153.52,153.52,0,0,1-115.75,0,23.35,23.35,0,0,1-14.58-21.65v-35c3.48,17.44,34.59,31.08,72.44,31.08,36.46,0,66.67-12.65,72-29.16A.21.21,0,0,1,3076,2374.28Z"/><path d="M3003.57,2451a163.94,163.94,0,0,1-61.82-12.09,34,34,0,0,1-21.31-31.62v-35l21.31-2.11c1.83,9.17,24.92,22.43,61.89,22.43,35.73,0,58.8-12.59,61.72-21.68a11,11,0,0,1,21.41,3.35v33a33.91,33.91,0,0,1-21.19,31.56A164.08,164.08,0,0,1,3006,2451C3005.21,2451,3004.39,2451,3003.57,2451ZM2942,2400.2v7.08a12.55,12.55,0,0,0,7.87,11.68,142.73,142.73,0,0,0,107.66,0,12.48,12.48,0,0,0,7.78-11.63v-7.24c-15.19,8.78-37.06,14.06-61.62,14.06C2978.72,2414.12,2957,2408.93,2942,2400.2Zm143.9-22.72,0,0Z"/><g class="cls-2"><path class="cls-3" d="M2949.47,2387.73l-.09,22.21s-1.13,11.81,13.58,15c-8.52,1.44-13.57-.82-15.84-2.15-9.21-5.38-10.34-17.48-11.32-27.9a72.11,72.11,0,0,1,1.32-21.82Z"/></g><path d="M3003.57,2451a163.94,163.94,0,0,1-61.82-12.09,34,34,0,0,1-21.31-31.62v-35l21.31-2.11c1.83,9.17,24.92,22.43,61.89,22.43,35.73,0,58.8-12.59,61.72-21.68a11,11,0,0,1,21.41,3.35v33a33.91,33.91,0,0,1-21.19,31.56A164.08,164.08,0,0,1,3006,2451C3005.21,2451,3004.39,2451,3003.57,2451ZM2942,2400.2v7.08a12.55,12.55,0,0,0,7.87,11.68,142.73,142.73,0,0,0,107.66,0,12.48,12.48,0,0,0,7.78-11.63v-7.24c-15.19,8.78-37.06,14.06-61.62,14.06C2978.72,2414.12,2957,2408.93,2942,2400.2Zm143.9-22.72,0,0Z"/><path class="cls-3" d="M3076.42,2369a16.53,16.53,0,0,1-.4,3.65c-3.86,17.26-34.79,30.7-72.38,30.7-37.85,0-69-13.64-72.44-31.08a16.27,16.27,0,0,1-.33-3.27c0-19,32.58-34.35,72.77-34.35S3076.42,2350.05,3076.42,2369Z"/><path d="M3003.64,2414.12c-44.19,0-78.31-16.33-83-39.72a28.13,28.13,0,0,1-.54-5.38c0-25.71,35.91-45.1,83.53-45.1s83.54,19.39,83.54,45.1a27.72,27.72,0,0,1-.67,6C3081.37,2398,3047.29,2414.12,3003.64,2414.12Zm0-68.69c-37.86,0-62,14-62,23.59a6,6,0,0,0,.12,1.17c1.83,9.16,24.92,22.42,61.89,22.42,36.64,0,59.84-13.17,61.88-22.28a5.92,5.92,0,0,0,.15-1.31C3065.67,2359.4,3041.51,2345.43,3003.64,2345.43Z"/><g class="cls-2"><path class="cls-3" d="M3006.78,2344.6c-19,1.25-56.15,8.43-55.54,25.67.32,9.22,17.05,16.12,21.6,17.88-4-.18-20.62-1.29-30.55-11.8-2.45-2.59-6.41-6.78-5.66-11.79,1.46-9.74,19.54-14.79,28.29-17.24C2972.79,2345.12,2987.3,2342.18,3006.78,2344.6Z"/></g><path d="M3003.64,2414.12c-44.19,0-78.31-16.33-83-39.72a28.13,28.13,0,0,1-.54-5.38c0-25.71,35.91-45.1,83.53-45.1s83.54,19.39,83.54,45.1a27.72,27.72,0,0,1-.67,6C3081.37,2398,3047.29,2414.12,3003.64,2414.12Zm0-68.69c-37.86,0-62,14-62,23.59a6,6,0,0,0,.12,1.17c1.83,9.16,24.92,22.42,61.89,22.42,36.64,0,59.84-13.17,61.88-22.28a5.92,5.92,0,0,0,.15-1.31C3065.67,2359.4,3041.51,2345.43,3003.64,2345.43Z"/><g class="cls-4"><path d="M3033,2432.3s9.06-1.13,9.06-13.58a164.07,164.07,0,0,0-1.07-20.22l-.07-4.67s37.34-41.86-26-53.17c0,0,58.83-9,61.1,36.2v38.47S3053.39,2435.69,3033,2432.3Z"/></g><g class="cls-4"><path d="M497.24,2366.35c-.76-.14,552.84,43.31,528.46-117.31l-30.11-37.28S1156.2,1945,671.49,1881.92c0,0,309.76-90.35,484.71,159.18C1156.2,2041.1,1454.48,2536.71,497.24,2366.35Z"/></g><g class="cls-4"><path d="M685.11,2097.75s55.93-2.87,68.84-24.38l-8.61-11.47s54.5-44.46-54.49-66c0,0,64.12-11.37,94.44,30.88S762.55,2110.65,685.11,2097.75Z"/></g><g class="cls-2"><path class="cls-3" d="M535.25,1962.23S314.4,2095.6,651.41,2167.3C651.41,2167.3,185.34,2111.37,535.25,1962.23Z"/></g><g class="cls-4"><path d="M2969.46,2223.4c-25.07,153-311,224.89-501.46,225.29-182,.39-467.6-64-501.46-225.29-13.07-62.26,19.88-138,58.14-185.32,46.31-57.3,110.44-83.28,138.08-94.48,33.1-13.41,73.13-23.7,79.94-25.44,7.28-1.85,34.1-8.55,72.68-14.53a938.41,938.41,0,0,1,130.82-10.9c92.49-1.24,161.4,11.36,178.05,14.53,25.46,4.86,52.62,10,87.21,21.81,26.78,9.11,92.14,31.36,145.35,76.3C2908.69,2049.2,2982.83,2141.8,2969.46,2223.4Z"/><path d="M2466.29,2466.62c-104.24,0-220.27-19.82-310.75-53.12-118.69-43.69-190.12-108.15-206.55-186.42-14.26-67.93,20.74-149.53,61.75-200.27C2060,1965.9,2127.28,1938.63,2156,1927c32.46-13.15,71.16-23.38,82.25-26.2,12.58-3.2,39-9.39,74.35-14.88A958.62,958.62,0,0,1,2446,1874.8c84.33-1.14,150,8.82,181.66,14.85,25.23,4.81,53.84,10.27,89.63,22.45,28.53,9.71,95.34,32.45,151.14,79.58,15.2,12.84,53.87,48.22,84.58,99.3,29,48.19,40.8,95,34.19,135.32-12.37,75.48-81.55,139-200.05,183.75-93.26,35.19-212.53,56.34-319.06,56.57Zm-7.45-556q-6.14,0-12.4.08a922,922,0,0,0-128.31,10.69c-33.92,5.26-59.05,11.15-71,14.2-10.54,2.68-47.28,12.38-77.64,24.68-26.17,10.6-87.47,35.43-130.87,89.13-34.53,42.72-66.32,114.25-54.54,170.37,30.6,145.78,299.84,211.05,482.26,211.05H2468c102.46-.22,217-20.51,306.48-54.26,50.48-19.06,91.29-41.62,121.28-67.08,32-27.13,50.82-57,56.05-88.93l17.69,2.9-17.69-2.9c6.59-40.23-12.42-82.59-29.53-111-19.4-32.26-48.18-66-77-90.39-50.62-42.76-112.94-64-139.55-73-33.42-11.38-59.54-16.35-84.8-21.17C2597.69,1920.45,2537.05,1910.57,2458.84,1910.57Z"/></g><path class="cls-5" d="M2969.46,2193.29c-25.07,153-311,224.88-501.46,225.29-182,.39-467.6-64-501.46-225.29-13.07-62.27,19.88-138,58.14-185.33,46.31-57.3,110.44-83.28,138.08-94.47,33.1-13.41,73.13-23.71,79.94-25.44,7.28-1.85,34.1-8.55,72.68-14.54a938.41,938.41,0,0,1,130.82-10.9c92.49-1.24,161.4,11.36,178.05,14.54,25.46,4.85,52.62,10,87.21,21.8,26.78,9.11,92.14,31.36,145.35,76.31C2908.69,2019.08,2982.83,2111.68,2969.46,2193.29Z"/><path d="M2466.29,2436.51c-104.24,0-220.27-19.83-310.75-53.13C2036.85,2339.7,1965.42,2275.24,1949,2197c-14.26-67.93,20.74-149.53,61.75-200.27,49.22-60.91,116.54-88.18,145.29-99.83,32.46-13.15,71.16-23.37,82.25-26.19,12.58-3.2,39-9.39,74.35-14.88A957.1,957.1,0,0,1,2446,1844.69c84.33-1.13,150,8.82,181.66,14.85,25.23,4.81,53.84,10.26,89.63,22.44,28.53,9.71,95.34,32.46,151.14,79.59,15.2,12.83,53.87,48.21,84.58,99.3,29,48.18,40.8,95,34.19,135.31-12.37,75.49-81.55,139-200.05,183.75-93.26,35.2-212.53,56.35-319.06,56.58Zm-7.45-556.06q-6.14,0-12.4.09a920.44,920.44,0,0,0-128.31,10.69c-33.92,5.26-59.05,11.15-71,14.19-10.54,2.68-47.28,12.38-77.64,24.68-26.17,10.6-87.47,35.43-130.87,89.13-34.53,42.72-66.32,114.26-54.54,170.37,30.6,145.78,299.84,211.06,482.26,211.06H2468c102.46-.22,217-20.5,306.48-54.26,50.48-19,91.29-41.62,121.28-67.07,32-27.13,50.82-57.05,56.05-88.93l17.69,2.89-17.69-2.89c6.59-40.23-12.42-82.59-29.53-111-19.4-32.26-48.18-66.05-77-90.39-50.62-42.76-112.94-64-139.55-73-33.42-11.37-59.54-16.35-84.8-21.16C2597.69,1890.34,2537.05,1880.45,2458.84,1880.45Z"/><g class="cls-2"><path class="cls-3" d="M2018.8,2163.72s-34.42,170.65,327,222.28c0,0-470.69-5.62-360.83-312.57Z"/></g><path d="M2466.29,2436.51c-104.24,0-220.27-19.83-310.75-53.13C2036.85,2339.7,1965.42,2275.24,1949,2197c-14.26-67.93,20.74-149.53,61.75-200.27,49.22-60.91,116.54-88.18,145.29-99.83,32.46-13.15,71.16-23.37,82.25-26.19,12.58-3.2,39-9.39,74.35-14.88A957.1,957.1,0,0,1,2446,1844.69c84.33-1.13,150,8.82,181.66,14.85,25.23,4.81,53.84,10.26,89.63,22.44,28.53,9.71,95.34,32.46,151.14,79.59,15.2,12.83,53.87,48.21,84.58,99.3,29,48.18,40.8,95,34.19,135.31-12.37,75.49-81.55,139-200.05,183.75-93.26,35.2-212.53,56.35-319.06,56.58Zm-7.45-556.06q-6.14,0-12.4.09a920.44,920.44,0,0,0-128.31,10.69c-33.92,5.26-59.05,11.15-71,14.19-10.54,2.68-47.28,12.38-77.64,24.68-26.17,10.6-87.47,35.43-130.87,89.13-34.53,42.72-66.32,114.26-54.54,170.37,30.6,145.78,299.84,211.06,482.26,211.06H2468c102.46-.22,217-20.5,306.48-54.26,50.48-19,91.29-41.62,121.28-67.07,32-27.13,50.82-57.05,56.05-88.93l17.69,2.89-17.69-2.89c6.59-40.23-12.42-82.59-29.53-111-19.4-32.26-48.18-66.05-77-90.39-50.62-42.76-112.94-64-139.55-73-33.42-11.37-59.54-16.35-84.8-21.16C2597.69,1890.34,2537.05,1880.45,2458.84,1880.45Z"/><ellipse class="cls-6" cx="2457.1" cy="2077" rx="454.22" ry="214.39"/><path d="M2457.1,2309.32c-123.92,0-240.7-22.91-328.84-64.51C2035.85,2201.19,1985,2141.6,1985,2077s50.9-124.18,143.31-167.8c88.14-41.6,204.92-64.51,328.84-64.51s240.7,22.91,328.83,64.51c92.42,43.62,143.31,103.21,143.31,167.8s-50.89,124.19-143.31,167.81C2697.8,2286.41,2581,2309.32,2457.1,2309.32Zm0-428.78c-118.74,0-230.09,21.69-313.53,61.08-39.54,18.66-70.38,40.16-91.65,63.9-20.65,23-31.12,47.09-31.12,71.48s10.47,48.45,31.12,71.49c21.27,23.74,52.11,45.24,91.65,63.9,83.44,39.39,194.79,61.08,313.53,61.08s230.08-21.69,313.53-61.08c39.54-18.66,70.37-40.16,91.64-63.9,20.65-23,31.12-47.09,31.12-71.49s-10.47-48.44-31.12-71.48c-21.27-23.74-52.1-45.24-91.64-63.9C2687.18,1902.23,2575.83,1880.54,2457.1,1880.54Z"/><g class="cls-2"><path class="cls-3" d="M2312.78,1898.41s-522,147.71-38.72,348.48c-155.95-7-264-98.7-265.3-172.09C2007.32,1995.28,2130.24,1886.39,2312.78,1898.41Z"/></g><path d="M2458.2,2309.25c-123.92,0-240.7-22.91-328.83-64.51-92.42-43.62-143.32-103.21-143.32-167.8s50.9-124.19,143.32-167.81c88.13-41.6,204.91-64.51,328.83-64.51s240.7,22.91,328.84,64.51c92.41,43.62,143.31,103.21,143.31,167.81s-50.9,124.18-143.31,167.8C2698.9,2286.34,2582.12,2309.25,2458.2,2309.25Zm0-428.78c-118.73,0-230.08,21.69-313.53,61.08-39.54,18.66-70.37,40.16-91.64,63.9-20.65,23-31.12,47.09-31.12,71.49s10.47,48.44,31.12,71.48c21.27,23.74,52.1,45.24,91.64,63.9,83.45,39.39,194.8,61.08,313.53,61.08s230.09-21.69,313.53-61.08c39.54-18.66,70.38-40.16,91.65-63.9,20.65-23,31.12-47.09,31.12-71.48s-10.47-48.45-31.12-71.49c-21.27-23.74-52.11-45.24-91.65-63.9C2688.29,1902.16,2576.94,1880.47,2458.2,1880.47Z"/><path class="cls-3" d="M2555.27,2060.51c-5.09,31.08-63.15,45.67-101.84,45.76-36.95.07-95-13-101.83-45.76-2.66-12.64,4-28,11.8-37.63,9.41-11.64,22.43-16.91,28-19.19a141.75,141.75,0,0,1,16.24-5.16c1.48-.38,6.92-1.74,14.76-3a191,191,0,0,1,26.56-2.21,185,185,0,0,1,36.16,3,121.1,121.1,0,0,1,17.71,4.43c5.44,1.85,18.72,6.37,29.52,15.5C2542.93,2025.14,2558,2043.94,2555.27,2060.51Z"/><path d="M2453.09,2115.59c-40.12,0-102.42-14.12-110.62-53.16-3.5-16.69,5.18-34.89,13.68-45.41,10.92-13.51,25.55-19.44,31.79-22a152.31,152.31,0,0,1,17.44-5.56c2.64-.67,8.19-2,15.63-3.13a200.2,200.2,0,0,1,27.87-2.32,193.6,193.6,0,0,1,38,3.12,129.29,129.29,0,0,1,19,4.76c5.57,1.89,20.37,6.93,32.53,17.19,11.33,9.58,29.57,31.49,26.06,52.91-6.37,38.87-71.47,53.48-111,53.57Zm-1.51-112.93-2.45,0a181.34,181.34,0,0,0-25.27,2.1c-6.67,1-11.56,2.19-13.88,2.78a132.74,132.74,0,0,0-15,4.77c-4.9,2-16.4,6.64-24.29,16.41-6.39,7.91-11.85,20.7-9.93,29.86,5.5,26.2,58.26,38.34,92.39,38.34h.3c40.9-.08,89-15.68,92.66-37.93h0c1.78-10.85-8.82-26.47-19.69-35.65-9.47-8-21.41-12.06-26.51-13.8a113.46,113.46,0,0,0-16.43-4.09A176.21,176.21,0,0,0,2451.58,2002.66Z"/><path class="cls-3" d="M2363.69,2052.58a42.53,42.53,0,0,0,4.3,15.77c11.13,22.23,38.69,26.08,42.31,26.53-1.06.36-25.32,8.29-43-7.17-18.68-16.31-15.45-44.38-11.73-45.55C2356.72,2041.8,2359,2043.75,2363.69,2052.58Z"/><path d="M2453.09,2115.59c-40.12,0-102.42-14.12-110.62-53.16-3.5-16.69,5.18-34.89,13.68-45.41,10.92-13.51,25.55-19.44,31.79-22a152.31,152.31,0,0,1,17.44-5.56c2.64-.67,8.19-2,15.63-3.13a200.2,200.2,0,0,1,27.87-2.32,193.6,193.6,0,0,1,38,3.12,129.29,129.29,0,0,1,19,4.76c5.57,1.89,20.37,6.93,32.53,17.19,11.33,9.58,29.57,31.49,26.06,52.91-6.37,38.87-71.47,53.48-111,53.57Zm-1.51-112.93-2.45,0a181.34,181.34,0,0,0-25.27,2.1c-6.67,1-11.56,2.19-13.88,2.78a132.74,132.74,0,0,0-15,4.77c-4.9,2-16.4,6.64-24.29,16.41-6.39,7.91-11.85,20.7-9.93,29.86,5.5,26.2,58.26,38.34,92.39,38.34h.3c40.9-.08,89-15.68,92.66-37.93h0c1.78-10.85-8.82-26.47-19.69-35.65-9.47-8-21.41-12.06-26.51-13.8a113.46,113.46,0,0,0-16.43-4.09A176.21,176.21,0,0,0,2451.58,2002.66Z"/><ellipse class="cls-3" cx="2452.65" cy="2036.9" rx="92.24" ry="43.54"/><path d="M2452.65,2089.76c-57.9,0-101.56-22.73-101.56-52.86s43.66-52.86,101.56-52.86,101.57,22.72,101.57,52.86S2510.55,2089.76,2452.65,2089.76Zm0-87.08c-47.46,0-82.92,18.07-82.92,34.22s35.46,34.22,82.92,34.22,82.92-18.07,82.92-34.22S2500.11,2002.68,2452.65,2002.68Z"/><g class="cls-2"><path class="cls-3" d="M2421.77,2003.1s-93.21,28.68-11.47,66c-29.76-2.2-48-24.72-45.89-40.16C2366.54,2013,2391.45,1995.45,2421.77,2003.1Z"/></g><path class="cls-8" d="M1222.84,1482.21s-437.34,261.32-260.95,541c6.68,9.71,49.91,70.39,130.5,80.3,97.93,12.05,161.91-61.81,166.49-67.29,49,56.33,128.86,75.36,197.76,47.22a175,175,0,0,0,108.27-169.94l531.33-.72c-3.11-25.75-7.3-53.08-12.91-81.74-7.26-37.11-15.9-71.36-25.1-102.53,90.29-27,235.67-83.21,379.32-204.36a1051.87,1051.87,0,0,0,213.67-246.66c45.47-96.78,31.13-202.37-31.55-261-42.94-40.17-96.47-47-120.53-48.38A1273.94,1273.94,0,0,1,2264,1214.36a1278.49,1278.49,0,0,1-392,213.19c-27.67,31.49-118.75,127-270.5,153.93C1397.65,1617.61,1246.57,1501.14,1222.84,1482.21Z"/><path d="M1113.55,2122.71a192.56,192.56,0,0,1-23.35-1.43c-83.74-10.31-130.69-69.92-143.08-88l-.39-.59c-42.18-66.86-54.58-138.32-36.87-212.39,11.1-46.4,34.19-94,68.62-141.41,27.16-37.42,61.45-74.9,101.92-111.39,68.62-61.87,130.64-99.17,133.24-100.72l10.67-6.38,9.71,7.75c33.11,26.42,141.27,102.3,288.75,102.31a431.81,431.81,0,0,0,75.58-6.68c134-23.75,220.52-103,260.16-148.11l3.19-3.63,4.58-1.53a1254.31,1254.31,0,0,0,618.36-453l5.76-7.93,9.78.57c36.43,2.13,88.86,13.08,131.74,53.19,34.06,31.86,55.45,75.79,61.87,127.06,6.37,50.93-2.73,104.4-26.34,154.65l-.46,1-.57.91a1067.8,1067.8,0,0,1-217.32,250.86c-108.43,91.45-232.41,159.56-368.79,202.63,8,28.73,14.9,58,20.61,87.12,5.36,27.39,9.77,55.33,13.11,83l2.42,20-533.67.72A192.31,192.31,0,0,1,1258.89,2062,239.37,239.37,0,0,1,1220,2091.7C1186.58,2112.16,1150.19,2122.71,1113.55,2122.71Zm-136.69-109.4c10.54,15.23,49.28,64,117.72,72.38,89.21,11,148.09-58.06,150.55-61l13.48-16.12,13.79,15.85A156.52,156.52,0,0,0,1547,1914.31l-.88-18.74,529.71-.71c-2.82-20.22-6.2-40.47-10.1-60.41-6.63-33.85-14.94-67.81-24.7-100.9l-5-17.14,17.12-5.11c138.31-41.27,263.76-108.86,372.88-200.88a1032.86,1032.86,0,0,0,209.46-241.54c40.68-87.49,29.22-185.78-28-239.33-31.54-29.5-70.1-39.75-99.75-42.8A1290.15,1290.15,0,0,1,1882.22,1443c-44.11,49.15-136.37,131.08-277.61,156.11a467.24,467.24,0,0,1-81.76,7.23c-146.33,0-256.55-69.09-301.06-102.32a958.66,958.66,0,0,0-117.92,90.62c-60,54.24-136.42,138.89-159.16,234.11C929.39,1893,940.2,1955,976.86,2013.31Z"/><g class="cls-2"><path class="cls-3" d="M1110.7,1813.59s438.44-45,431.27,164.41c24.62-48.19,21-78.28,14.34-96.08C1525.27,1799.62,1347.92,1769.94,1110.7,1813.59Z"/></g><path d="M1113.55,2122.71a192.56,192.56,0,0,1-23.35-1.43c-83.74-10.31-130.69-69.92-143.08-88l-.39-.59c-42.18-66.86-54.58-138.32-36.87-212.39,11.1-46.4,34.19-94,68.62-141.41,27.16-37.42,61.45-74.9,101.92-111.39,68.62-61.87,130.64-99.17,133.24-100.72l10.67-6.38,9.71,7.75c33.11,26.42,141.27,102.3,288.75,102.31a431.81,431.81,0,0,0,75.58-6.68c134-23.75,220.52-103,260.16-148.11l3.19-3.63,4.58-1.53a1254.31,1254.31,0,0,0,618.36-453l5.76-7.93,9.78.57c36.43,2.13,88.86,13.08,131.74,53.19,34.06,31.86,55.45,75.79,61.87,127.06,6.37,50.93-2.73,104.4-26.34,154.65l-.46,1-.57.91a1067.8,1067.8,0,0,1-217.32,250.86c-108.43,91.45-232.41,159.56-368.79,202.63,8,28.73,14.9,58,20.61,87.12,5.36,27.39,9.77,55.33,13.11,83l2.42,20-533.67.72A192.31,192.31,0,0,1,1258.89,2062,239.37,239.37,0,0,1,1220,2091.7C1186.58,2112.16,1150.19,2122.71,1113.55,2122.71Zm-136.69-109.4c10.54,15.23,49.28,64,117.72,72.38,89.21,11,148.09-58.06,150.55-61l13.48-16.12,13.79,15.85A156.52,156.52,0,0,0,1547,1914.31l-.88-18.74,529.71-.71c-2.82-20.22-6.2-40.47-10.1-60.41-6.63-33.85-14.94-67.81-24.7-100.9l-5-17.14,17.12-5.11c138.31-41.27,263.76-108.86,372.88-200.88a1032.86,1032.86,0,0,0,209.46-241.54c40.68-87.49,29.22-185.78-28-239.33-31.54-29.5-70.1-39.75-99.75-42.8A1290.15,1290.15,0,0,1,1882.22,1443c-44.11,49.15-136.37,131.08-277.61,156.11a467.24,467.24,0,0,1-81.76,7.23c-146.33,0-256.55-69.09-301.06-102.32a958.66,958.66,0,0,0-117.92,90.62c-60,54.24-136.42,138.89-159.16,234.11C929.39,1893,940.2,1955,976.86,2013.31Z"/><path d="M2452.65,2089.76c-57.9,0-101.56-22.73-101.56-52.86s43.66-52.86,101.56-52.86,101.57,22.72,101.57,52.86S2510.55,2089.76,2452.65,2089.76Zm0-87.08c-47.46,0-82.92,18.07-82.92,34.22s35.46,34.22,82.92,34.22,82.92-18.07,82.92-34.22S2500.11,2002.68,2452.65,2002.68Z"/><path d="M2096.84,2194.85a53.42,53.42,0,0,1,2.69,10.68,87.71,87.71,0,0,1,1,10.69,122.13,122.13,0,0,1-1.15,21.41c-.51,3.57-1.08,7.14-1.92,10.71a75.46,75.46,0,0,1-3.38,10.73,77.87,77.87,0,0,1-5.36,10.74,58.45,58.45,0,0,1-8.19,10.76,58.41,58.41,0,0,1-8.35-10.63,75.81,75.81,0,0,1-5.53-10.66,75,75,0,0,1-3.55-10.67c-.9-3.56-1.53-7.12-2.09-10.68a121.07,121.07,0,0,1-1.49-21.39,87.84,87.84,0,0,1,.87-10.7,54.22,54.22,0,0,1,2.52-10.72Z"/><path d="M2216.76,2253a54.11,54.11,0,0,1,2.69,10.68,89.72,89.72,0,0,1,1,10.69,122.12,122.12,0,0,1-1.14,21.41c-.51,3.57-1.09,7.14-1.92,10.71a75.52,75.52,0,0,1-3.39,10.73,76.76,76.76,0,0,1-5.36,10.74,58.37,58.37,0,0,1-8.18,10.76,58.93,58.93,0,0,1-8.36-10.63,76.8,76.8,0,0,1-5.52-10.66,73.79,73.79,0,0,1-3.56-10.67c-.89-3.56-1.52-7.12-2.09-10.68a122,122,0,0,1-1.48-21.39,87.84,87.84,0,0,1,.87-10.7,53.53,53.53,0,0,1,2.52-10.72Z"/><path d="M2347.57,2282.06a53.59,53.59,0,0,1,2.69,10.68,87.71,87.71,0,0,1,1,10.69,122.08,122.08,0,0,1-1.15,21.41c-.51,3.57-1.08,7.14-1.92,10.71a74.26,74.26,0,0,1-3.39,10.73,76.67,76.67,0,0,1-5.35,10.74,58.45,58.45,0,0,1-8.19,10.76,58.41,58.41,0,0,1-8.35-10.63,75.81,75.81,0,0,1-5.53-10.66,75,75,0,0,1-3.55-10.67c-.9-3.56-1.53-7.12-2.09-10.68a121.07,121.07,0,0,1-1.49-21.39,87.84,87.84,0,0,1,.87-10.7,54.22,54.22,0,0,1,2.52-10.72Z"/><path d="M2476.86,2295.83a54.11,54.11,0,0,1,2.69,10.68,89.72,89.72,0,0,1,1,10.69,123.09,123.09,0,0,1-1.14,21.41c-.51,3.57-1.09,7.14-1.92,10.71a75.52,75.52,0,0,1-3.39,10.73,76.76,76.76,0,0,1-5.36,10.74,58.37,58.37,0,0,1-8.18,10.76,58.93,58.93,0,0,1-8.36-10.63,76.8,76.8,0,0,1-5.52-10.66,73.79,73.79,0,0,1-3.56-10.67c-.89-3.56-1.52-7.12-2.09-10.68a122,122,0,0,1-1.48-21.39,87.84,87.84,0,0,1,.87-10.7,53.53,53.53,0,0,1,2.52-10.72Z"/><path d="M2617,2283.49a54.28,54.28,0,0,1,2.69,10.68,89.93,89.93,0,0,1,1,10.69,122.08,122.08,0,0,1-1.15,21.41c-.5,3.57-1.08,7.14-1.92,10.71a75.06,75.06,0,0,1-3.38,10.73,76.77,76.77,0,0,1-5.36,10.74,58.42,58.42,0,0,1-8.18,10.77,58.53,58.53,0,0,1-8.36-10.64,76.7,76.7,0,0,1-5.52-10.65,74.19,74.19,0,0,1-3.56-10.67c-.89-3.56-1.53-7.12-2.09-10.68a123.13,123.13,0,0,1-1.49-21.39,87.86,87.86,0,0,1,.88-10.71,53.53,53.53,0,0,1,2.52-10.72Z"/><g class="cls-4"><path d="M1209.26,1941c-8.41,4.76-98.54,54.16-169.56,15.42-76.49-41.72-111-174.85-37.82-296.26-98.87,123.35-117.18,270.31-54,357,45.31,62.21,121.51,78.17,125.69,79,103.62,20.22,182.1-49,191.63-57.69a165.53,165.53,0,0,1-55.89-97.44Z"/></g><g class="cls-4"><path d="M1561.76,1867s-73.43,244-352.91,73.31c0,0,62.15,182.32,233.47,143.43S1561.76,1867,1561.76,1867Z"/></g><path d="M1286.14,2080.7l-1.44-1-1.23-.92c-.79-.61-1.59-1.21-2.35-1.83-1.53-1.23-3-2.47-4.47-3.73-2.91-2.54-5.7-5.16-8.42-7.84s-5.32-5.47-7.86-8.31q-1.9-2.13-3.73-4.32c-1.24-1.45-2.43-2.94-3.61-4.43a184.65,184.65,0,0,1-23.8-38.92,152,152,0,0,1-7.92-21.41c-1.14-3.61-1.91-7.36-2.78-11-.66-3.75-1.39-7.44-1.77-11.2a116.36,116.36,0,0,1,2.73-44.07,157.3,157.3,0,0,0,10.44,40.74c1.19,3.2,2.77,6.26,4.15,9.34,1.57,3,3,6.06,4.76,9s3.46,5.8,5.19,8.67c1.88,2.8,3.7,5.6,5.69,8.3a243.37,243.37,0,0,0,26.18,30.3l1.77,1.76,1.81,1.73q1.79,1.74,3.63,3.42c2.41,2.3,4.88,4.51,7.39,6.68s5,4.35,7.53,6.41c1.25,1,2.51,2.08,3.77,3.07l1.85,1.48,1.61,1.26Z"/><path d="M2758.47,2252.32a54.28,54.28,0,0,1,2.69,10.68,87.69,87.69,0,0,1,1,10.69,122.07,122.07,0,0,1-1.14,21.41c-.51,3.57-1.09,7.14-1.92,10.71a74.19,74.19,0,0,1-8.75,21.47,58.37,58.37,0,0,1-8.18,10.76,58.58,58.58,0,0,1-8.36-10.63,77.26,77.26,0,0,1-5.52-10.65,74.61,74.61,0,0,1-3.56-10.67c-.89-3.56-1.52-7.13-2.09-10.69a122,122,0,0,1-1.48-21.38,87.84,87.84,0,0,1,.87-10.71,53.53,53.53,0,0,1,2.52-10.72Z"/><path d="M2878.29,2185a53.29,53.29,0,0,1,2.68,10.67,87.91,87.91,0,0,1,1.05,10.69,122.08,122.08,0,0,1-1.15,21.41c-.5,3.57-1.08,7.14-1.92,10.72a75.34,75.34,0,0,1-3.38,10.72,76.77,76.77,0,0,1-5.36,10.74,58.42,58.42,0,0,1-8.18,10.77,58.83,58.83,0,0,1-8.36-10.63,77.45,77.45,0,0,1-5.53-10.66,75,75,0,0,1-3.55-10.67c-.89-3.56-1.53-7.12-2.09-10.68a123.13,123.13,0,0,1-1.49-21.39,87.86,87.86,0,0,1,.88-10.71,54.19,54.19,0,0,1,2.51-10.72Z"/><ellipse cx="2452.7" cy="2036.27" rx="29.07" ry="10.9"/><g class="cls-4"><path d="M2256.85,2369.22c-.77-.14,552.84,43.31,528.46-117.31l-30.12-37.28s160.62-266.74-324.1-329.84c0,0,309.76-90.35,484.72,159.18C2915.81,2044,3214.08,2539.58,2256.85,2369.22Z"/></g><g class="cls-4"><path d="M2444.72,2100.62s55.93-2.87,68.83-24.38l-8.6-11.48s54.49-44.45-54.5-66c0,0,64.13-11.37,94.45,30.88S2522.16,2113.52,2444.72,2100.62Z"/></g><g class="cls-2"><path class="cls-3" d="M2294.86,1965.1S2074,2098.47,2411,2170.17C2411,2170.17,1944.94,2114.24,2294.86,1965.1Z"/></g><g class="cls-4"><path d="M102.88,2791.84s1794.8,81.74,2364.45-271h710.91s66.69-23,.72,139.1-43,131.94-43,131.94Z"/></g><path class="cls-8" d="M2122.39,585.82c23.87,142.15,7.11,312.75-43.52,472.55-81.32,256.71-250,485.54-478.08,523.83-227.7,38.23-461.49-122.39-622.16-337.92-100.45-134.75-172.32-291-196.24-433.48C720.18,440.29,969.73,89.57,1339.76,27.44S2060.19,215.31,2122.39,585.82Z"/><path d="M1532.62,1605.76a472.62,472.62,0,0,1-106.55-12.46c-56.49-13.06-113.86-36.41-170.52-69.41-105-61.18-205.76-154.16-291.29-268.9A1185.42,1185.42,0,0,1,835.5,1037.87c-34.89-76.73-58.71-152.13-70.79-224.11A697.3,697.3,0,1,1,2140.07,582.85c12,71.79,14.19,150.62,6.34,234.3A1184.25,1184.25,0,0,1,2096,1063.79c-43.3,136.66-108.13,257.72-187.51,350.09-42.81,49.81-89.46,90.73-138.66,121.6-52.72,33.09-108.58,54.75-166,64.4A430.35,430.35,0,0,1,1532.62,1605.76ZM1453.51,35.84a668.92,668.92,0,0,0-110.79,9.28c-174.23,29.25-326.64,124.7-429.13,268.75s-142.82,319.48-113.53,494c23,136.91,93.31,292.08,192.94,425.73,160,214.71,357.27,336.34,539.45,336.35a394.52,394.52,0,0,0,65.37-5.39c235.1-39.47,393.82-290.14,464-511.56,50.21-158.46,65.86-327.65,42.93-464.17C2075.42,414.31,1980,261.67,1836.1,159,1722.74,78.11,1589.93,35.84,1453.51,35.84Z"/><g class="cls-4"><path d="M1986.62,1295.56c-47.55,178.85-194.56,314.12-375.09,345.26-188.38,32.5-379.69-54.17-481.41-218.56l17.6,1.17c36.83,38.7,117.16,112.34,242.51,149,27.38,8,114.14,32.52,211.88,17.72,236.47-35.81,358.55-274.62,373.55-305.08Z"/></g><g class="cls-2"><path class="cls-3" d="M1348.52,80.26c361.73-60.73,704.7,176.82,778,533.64q-1.82-14.21-4.14-28.08c-62.2-370.51-412.6-620.5-782.63-558.38S720.18,440.29,782.39,810.79q2.1,12.51,4.69,25.15C741.47,475.8,987.71,140.83,1348.52,80.26Z"/></g><path d="M1532.62,1605.76a472.62,472.62,0,0,1-106.55-12.46c-56.49-13.06-113.86-36.41-170.52-69.41-105-61.18-205.76-154.16-291.29-268.9A1185.42,1185.42,0,0,1,835.5,1037.87c-34.89-76.73-58.71-152.13-70.79-224.11A697.3,697.3,0,1,1,2140.07,582.85c12,71.79,14.19,150.62,6.34,234.3A1184.25,1184.25,0,0,1,2096,1063.79c-43.3,136.66-108.13,257.72-187.51,350.09-42.81,49.81-89.46,90.73-138.66,121.6-52.72,33.09-108.58,54.75-166,64.4A430.35,430.35,0,0,1,1532.62,1605.76ZM1453.51,35.84a668.92,668.92,0,0,0-110.79,9.28c-174.23,29.25-326.64,124.7-429.13,268.75s-142.82,319.48-113.53,494c23,136.91,93.31,292.08,192.94,425.73,160,214.71,357.27,336.34,539.45,336.35a394.52,394.52,0,0,0,65.37-5.39c235.1-39.47,393.82-290.14,464-511.56,50.21-158.46,65.86-327.65,42.93-464.17C2075.42,414.31,1980,261.67,1836.1,159,1722.74,78.11,1589.93,35.84,1453.51,35.84Z"/><path d="M1532.62,1605.76a472.62,472.62,0,0,1-106.55-12.46c-56.49-13.06-113.86-36.41-170.52-69.41-105-61.18-205.76-154.16-291.29-268.9A1185.42,1185.42,0,0,1,835.5,1037.87c-34.89-76.73-58.71-152.13-70.79-224.11A697.3,697.3,0,1,1,2140.07,582.85c12,71.79,14.19,150.62,6.34,234.3A1184.25,1184.25,0,0,1,2096,1063.79c-43.3,136.66-108.13,257.72-187.51,350.09-42.81,49.81-89.46,90.73-138.66,121.6-52.72,33.09-108.58,54.75-166,64.4A430.35,430.35,0,0,1,1532.62,1605.76ZM1453.51,35.84a668.92,668.92,0,0,0-110.79,9.28c-174.23,29.25-326.64,124.7-429.13,268.75s-142.82,319.48-113.53,494c23,136.91,93.31,292.08,192.94,425.73,160,214.71,357.27,336.34,539.45,336.35a394.52,394.52,0,0,0,65.37-5.39c235.1-39.47,393.82-290.14,464-511.56,50.21-158.46,65.86-327.65,42.93-464.17C2075.42,414.31,1980,261.67,1836.1,159,1722.74,78.11,1589.93,35.84,1453.51,35.84Z"/><path d="M1519.25,1086.4a19.85,19.85,0,1,1-22.94-16.73A20.09,20.09,0,0,1,1519.25,1086.4Z"/><path d="M1579.74,1076.25a19.85,19.85,0,1,1-22.93-16.73A20.07,20.07,0,0,1,1579.74,1076.25Z"/><g class="cls-4"><path d="M946.22,1170.68c149.53,293,420.89,457.82,651.56,414.75,179.5-33.52,304.56-187.35,310.39-194.71,115.18-145.3,161.73-375.32,161.74-375.32h0s-199.26,513.38-533.4,495.89S946.22,1170.68,946.22,1170.68Z"/></g><path d="M1361.62,1112.94a50,50,0,0,0,38.6-52.9c-5.29-63.19-31-184.16-145.35-262.53a339.2,339.2,0,0,0-301.66-40.79,50.21,50.21,0,0,0-33.59,54.41c8.31,59.17,37.87,170,143.2,246.6C1175.72,1139.8,1299.53,1127.12,1361.62,1112.94Z"/><path d="M1269.59,1141.31c-64.54,0-143-15.09-217.31-69.08C941.72,991.86,910.59,875.7,901.87,813.62a68.27,68.27,0,0,1,45.52-73.85c106.31-36.54,225-20.48,317.62,43,120,82.21,147.4,208.1,153.07,275.82a68.18,68.18,0,0,1-52.47,71.86A434.38,434.38,0,0,1,1269.59,1141.31Zm-206.45-385A320.32,320.32,0,0,0,959,773.67a32.38,32.38,0,0,0-21.67,35c7.93,56.46,36.14,162,136,234.6,106.7,77.56,223.9,66,284.27,52.23h0a32.15,32.15,0,0,0,24.72-33.92c-5.14-61.38-29.85-175.39-137.61-249.24A321.65,321.65,0,0,0,1063.14,756.34Z"/><g class="cls-2"><path class="cls-3" d="M934.55,828.72s-12.44-27.92,52-40.19S1334.86,765,1392.65,1064a300,300,0,0,0-13.57-102.33C1348.6,865.24,1277.53,814,1254.67,798c-52.63-36.83-102.34-48.94-120.36-52.74-10.86-2.29-54.94-11-112.26-3.91a358,358,0,0,0-62.28,13.4,44.66,44.66,0,0,0-27.25,14.76,44,44,0,0,0-10.24,24C920.36,812.86,932.47,826.46,934.55,828.72Z"/></g><path d="M1269.59,1141.31c-64.54,0-143-15.09-217.31-69.08C941.72,991.86,910.59,875.7,901.87,813.62a68.27,68.27,0,0,1,45.52-73.85c106.31-36.54,225-20.48,317.62,43,120,82.21,147.4,208.1,153.07,275.82a68.18,68.18,0,0,1-52.47,71.86A434.38,434.38,0,0,1,1269.59,1141.31Zm-206.45-385A320.32,320.32,0,0,0,959,773.67a32.38,32.38,0,0,0-21.67,35c7.93,56.46,36.14,162,136,234.6,106.7,77.56,223.9,66,284.27,52.23h0a32.15,32.15,0,0,0,24.72-33.92c-5.14-61.38-29.85-175.39-137.61-249.24A321.65,321.65,0,0,0,1063.14,756.34Z"/><path d="M1685,1059.73a50,50,0,0,1-54.37-36.48c-16.66-61.19-33.93-183.65,46.68-296.43a339.17,339.17,0,0,1,269.47-141.6A50.21,50.21,0,0,1,1997,624.84c12.45,58.45,22.63,172.72-50.12,280.72C1868.9,1021.32,1748.24,1051.79,1685,1059.73Z"/><path d="M1678.93,1078a68.27,68.27,0,0,1-65.56-50.08c-17.85-65.57-35.18-193.24,49.4-311.56,65.26-91.3,171.33-147,283.72-149.1l1.27,0a68.28,68.28,0,0,1,66.78,53.83c13.07,61.31,23.58,181.11-52.79,294.47-81.62,121.16-207,153.46-274.48,161.94h0A67.05,67.05,0,0,1,1678.93,1078Zm268.83-474.9h-.61c-101.11,1.86-196.52,52-255.21,134.1-76,106.28-60.16,221.86-44,281.3a32.18,32.18,0,0,0,34.85,23.4c61.43-7.71,175.51-37,249.21-146.39,69-102.38,59.34-211.21,47.46-267A32.38,32.38,0,0,0,1947.76,603.14Z"/><g class="cls-2"><path class="cls-3" d="M1989,646.48s2.14-30.49-62.64-20-335.29,97.12-287.24,397.83a300.36,300.36,0,0,1-22.28-100.79c-4.36-101,44.87-173.52,60.87-196.38,36.84-52.62,79.39-81,95-90.75,9.42-5.87,47.86-29.13,104.14-42.1a358.74,358.74,0,0,1,63.1-8.74,44.71,44.71,0,0,1,30.66,4.54,44,44,0,0,1,17.83,19C1996.91,626.72,1990.19,643.64,1989,646.48Z"/></g><path d="M1678.93,1078a68.27,68.27,0,0,1-65.56-50.08c-17.85-65.57-35.18-193.24,49.4-311.56,65.26-91.3,171.33-147,283.72-149.1l1.27,0a68.28,68.28,0,0,1,66.78,53.83c13.07,61.31,23.58,181.11-52.79,294.47-81.62,121.16-207,153.46-274.48,161.94h0A67.05,67.05,0,0,1,1678.93,1078Zm268.83-474.9h-.61c-101.11,1.86-196.52,52-255.21,134.1-76,106.28-60.16,221.86-44,281.3a32.18,32.18,0,0,0,34.85,23.4c61.43-7.71,175.51-37,249.21-146.39,69-102.38,59.34-211.21,47.46-267A32.38,32.38,0,0,0,1947.76,603.14Z"/><path d="M1671.58,1206.92A13.15,13.15,0,0,1,1691,1220c-7.43,63.06-54.71,115.73-117.28,128-65.67,12.87-132.16-21.91-160.89-82-4.61-9.64,3.78-20.39,14.29-18.48a366.51,366.51,0,0,0,244.44-40.57Z"/><path d="M1546.52,1372.13a168.62,168.62,0,0,1-76.9-18.65,171.8,171.8,0,0,1-76.18-78.23,34.65,34.65,0,0,1,37.55-48.93,344.93,344.93,0,0,0,230.12-38.19,34.67,34.67,0,0,1,51.28,34.38,169.81,169.81,0,0,1-43.43,95,165.62,165.62,0,0,1-91.08,51.58A163.54,163.54,0,0,1,1546.52,1372.13Zm-106-100.74c27.77,42.23,79.54,65.19,129,55.49,47.13-9.24,85.09-46.39,97-93a387.93,387.93,0,0,1-226.06,37.51Zm241.51-45.68Z"/><path class="cls-9" d="M1664.81,1302.15c-6.5-5.1-52.06-39.6-113.28-27.12-55.31,11.28-83.31,52.73-88.39,60.56a189.6,189.6,0,0,0,201.67-33.44Z"/><path d="M1546.52,1372.13a168.62,168.62,0,0,1-76.9-18.65,171.8,171.8,0,0,1-76.18-78.23,34.65,34.65,0,0,1,37.55-48.93,344.93,344.93,0,0,0,230.12-38.19,34.67,34.67,0,0,1,51.28,34.38,169.81,169.81,0,0,1-43.43,95,165.62,165.62,0,0,1-91.08,51.58A163.54,163.54,0,0,1,1546.52,1372.13Zm-106-100.74c27.77,42.23,79.54,65.19,129,55.49,47.13-9.24,85.09-46.39,97-93a387.93,387.93,0,0,1-226.06,37.51Zm241.51-45.68Z"/><path class="cls-8" d="M2793.71,870.6l-98.53,152.65a59.71,59.71,0,0,0-8.47,21.08l-7.86,40.58-119-119.55c10.48-7.15,21.81-14.83,34.15-22.62a60.22,60.22,0,0,0,17.91-17.42q40.41-60.51,80.8-121a59.8,59.8,0,0,1,83-16.51l1,.66A59.8,59.8,0,0,1,2793.71,870.6Z"/><path d="M2690,1121.54,2531.94,962.71l17.82-12.16c10.65-7.27,22.11-15,34.68-23A42.43,42.43,0,0,0,2597,915.37q40.41-60.52,80.79-121a77.74,77.74,0,0,1,107.85-21.47l1,.64c35.11,23.45,45,71.36,22.16,106.81h0L2710.24,1033a41.52,41.52,0,0,0-5.93,14.76ZM2587.86,968.08l79.83,80.2,1.42-7.36a77.28,77.28,0,0,1,11-27.39l98.53-152.65a42.06,42.06,0,0,0-11.92-57.53l-1-.65a41.88,41.88,0,0,0-58.14,11.54q-40.38,60.53-80.79,121a77.57,77.57,0,0,1-23.25,22.63Q2595.45,963,2587.86,968.08Z"/><g class="cls-2"><path class="cls-3" d="M2706.71,816.39c1.7-.93,23.78-12.61,46-.92,16.93,8.91,27,27.7,25.38,47.59,17.54-21.78,13.42-51.78-3.47-65.07C2756,783.33,2721.69,789,2706.71,816.39Z"/></g><path d="M2690,1121.54,2531.94,962.71l17.82-12.16c10.65-7.27,22.11-15,34.68-23A42.43,42.43,0,0,0,2597,915.37q40.41-60.52,80.79-121a77.74,77.74,0,0,1,107.85-21.47l1,.64c35.11,23.45,45,71.36,22.16,106.81h0L2710.24,1033a41.52,41.52,0,0,0-5.93,14.76ZM2587.86,968.08l79.83,80.2,1.42-7.36a77.28,77.28,0,0,1,11-27.39l98.53-152.65a42.06,42.06,0,0,0-11.92-57.53l-1-.65a41.88,41.88,0,0,0-58.14,11.54q-40.38,60.53-80.79,121a77.57,77.57,0,0,1-23.25,22.63Q2595.45,963,2587.86,968.08Z"/><path class="cls-8" d="M2590.59,1293.05c74.24,18,145.35-4.48,177.6-54.4,17.76-27.5,19.73-57.13,18.9-75.85-7.11-69.38-40.14-125.28-88.59-141.17l-1.66-.53c-21.56-6.61-44.91-3-63.91,9.19-33.86,21.65-55.94,58.13-58,98.32-2.26,44.45,20.29,87.1,58.61,111.52Z"/><g class="cls-2"><path class="cls-3" d="M2647.14,1049.7a84.33,84.33,0,0,1,36.14,7.25c52.61,24,78.85,108.09,52.34,169.5-5.26,12.18-17.68,35.25-47.08,55.4,0,0,132.21-29.71,85.49-177s-114.54-76.6-114.54-76.6Z"/></g><path d="M2590.59,1293.05c29.37,15.58,64.78,19.8,98.58,12.87a163.44,163.44,0,0,0,49.16-18.1,143.38,143.38,0,0,0,22.08-15.51,129.91,129.91,0,0,0,18.8-20,131.66,131.66,0,0,0,23.09-50,159.81,159.81,0,0,0,3.7-27c.21-4.6.31-8.76.07-14.09l-.7-6.94-.81-6.44a242.4,242.4,0,0,0-12.44-50.7A188.82,188.82,0,0,0,2767,1049.7a149.92,149.92,0,0,0-18.54-20.7,125.4,125.4,0,0,0-23-16.84l-3.2-1.71-1.6-.85-1.65-.78-3.3-1.54c-1.11-.49-2.24-.94-3.37-1.4-2.23-1-4.56-1.72-6.86-2.53-1.16-.41-2.29-.76-3.52-1.1l-3.68-1a94.51,94.51,0,0,0-45,.14c-2.44.54-4.81,1.34-7.19,2.08s-4.7,1.66-7,2.68a93.65,93.65,0,0,0-13.2,6.83c-1,.66-2.12,1.32-3.11,2l-2.81,2c-1.85,1.35-3.78,2.6-5.53,4.1a140.6,140.6,0,0,0-19.81,19,133.23,133.23,0,0,0-15.72,22.34,133.69,133.69,0,0,0-16.78,51.31c-.21,2.24-.52,4.47-.63,6.71l-.25,6.73c0,2.24.09,4.49.13,6.72l.11,3.35.32,3.34a125.75,125.75,0,0,0,5,26.12,118.12,118.12,0,0,0,25.47,45.2l4.44,4.64c1.52,1.5,3.15,2.9,4.72,4.32.8.7,1.56,1.43,2.38,2.1l2.53,2,2.51,1.93a29.25,29.25,0,0,0,2.57,1.84c1.77,1.15,3.52,2.31,5.29,3.41s3.66,2,5.48,3a94.49,94.49,0,0,0,11.35,5,224,224,0,0,1-15.87-18.13c-1.23-1.53-2.32-3.18-3.47-4.74l-1.7-2.36c-.56-.79-1.05-1.63-1.58-2.43l-3.11-4.85-2.82-5a136.41,136.41,0,0,1-15-41.69,107.87,107.87,0,0,1-1.86-21.54v-2.68l.2-2.68c.15-1.78.21-3.57.42-5.34l.74-5.29c.27-1.75.68-3.48,1-5.22a110.44,110.44,0,0,1,6.38-20.16,119.52,119.52,0,0,1,10.12-18.41,110.55,110.55,0,0,1,13.28-16.11,105.36,105.36,0,0,1,15.89-13.35c1.37-1,2.87-1.91,4.31-2.86l2.17-1.4c.7-.42,1.36-.77,2-1.16a56.65,56.65,0,0,1,8.4-3.83c1.43-.58,2.91-1,4.37-1.45s2.94-.8,4.44-1.07a53.78,53.78,0,0,1,9-1.19,57.44,57.44,0,0,1,17.71,1.85l2.13.62c.7.2,1.5.45,2.22.73,1.48.57,3,1,4.42,1.72l2.19.94,2.14,1,1.08.53,1.05.58,2.1,1.16a92.47,92.47,0,0,1,15.71,11.7,110.08,110.08,0,0,1,13.52,15.25,137.15,137.15,0,0,1,11.23,17.82,180.24,180.24,0,0,1,8.85,19.69,225,225,0,0,1,11.31,42.63l.85,5.5.67,5c.17,2.7.27,6.59.28,10a121.93,121.93,0,0,1-1.91,20.81,109.22,109.22,0,0,1-5.42,19.81,102.83,102.83,0,0,1-9.22,18.22,97.71,97.71,0,0,1-13,16.15,114.15,114.15,0,0,1-16.22,13.71,141.53,141.53,0,0,1-39.48,19,252.89,252.89,0,0,1-44.66,8.78q-11.57,1.24-23.49,1.8C2607,1292.66,2598.93,1292.77,2590.59,1293.05Z"/><path d="M2657.37,1309.89a143.16,143.16,0,0,1-67.11-16.2l-2.38-1.26,2.69-.09c3-.11,6-.18,9-.26,5.31-.15,10.32-.28,15.4-.53,7.87-.36,15.76-1,23.44-1.79a253.47,253.47,0,0,0,44.54-8.75,140.43,140.43,0,0,0,39.27-18.86,113.58,113.58,0,0,0,16.11-13.62,96.7,96.7,0,0,0,12.89-16,102.8,102.8,0,0,0,9.15-18.09,108.5,108.5,0,0,0,5.39-19.69,120.29,120.29,0,0,0,1.89-20.69c0-3.5-.11-7.33-.27-10l-.67-5-.85-5.48a225,225,0,0,0-11.27-42.49,178.86,178.86,0,0,0-8.81-19.6,137.45,137.45,0,0,0-11.17-17.73,109.62,109.62,0,0,0-13.44-15.15,91.76,91.76,0,0,0-15.59-11.61l-4.17-2.24-2.15-1.06-2.15-.92c-1-.46-2-.83-3-1.2-.47-.16-.93-.33-1.39-.51-.62-.24-1.35-.48-2.17-.72l-2.13-.61a56.78,56.78,0,0,0-17.46-1.83,53.51,53.51,0,0,0-8.87,1.18c-.94.17-1.87.41-2.76.65l-1.68.42-1.4.44c-.95.29-1.93.6-2.86,1a55.44,55.44,0,0,0-8.32,3.8c-.27.16-.55.31-.83.46l-1.19.68-2.15,1.39c-.46.31-.93.6-1.4.9-1,.61-2,1.24-2.87,1.93a104.34,104.34,0,0,0-15.81,13.29,108.83,108.83,0,0,0-13.19,16,120.05,120.05,0,0,0-10.06,18.31,109.78,109.78,0,0,0-6.34,20c-.12.65-.26,1.33-.4,2-.22,1.06-.44,2.12-.6,3.18l-.74,5.28c-.13,1.08-.2,2.17-.27,3.27-.05.67-.09,1.35-.15,2l-.2,2.67v2.63a106.3,106.3,0,0,0,1.84,21.42,136,136,0,0,0,14.94,41.47l2.83,5,3.08,4.82c.19.28.37.58.56.87.32.52.65,1,1,1.54l1.69,2.35,1.23,1.7c.71,1,1.44,2,2.21,3a223.1,223.1,0,0,0,15.85,18.08l2.25,2.39-4.89-2a76.82,76.82,0,0,1-9.59-4.33l-1.53-.82c-1.33-.69-2.7-1.41-4-2.25s-2.49-1.58-3.73-2.4l-1.56-1a29.66,29.66,0,0,1-2.47-1.76l-5.18-4c-.57-.46-1.09-.93-1.62-1.41l-.8-.72-1.3-1.16c-1.15-1-2.33-2.09-3.46-3.19l-4.45-4.66a119,119,0,0,1-25.64-45.49,127,127,0,0,1-5-26.27l-.32-3.32-.11-3.39c0-.75,0-1.48-.06-2.21,0-1.49-.1-3-.07-4.55l.25-6.74c.08-1.55.24-3.09.41-4.58.08-.72.16-1.45.22-2.18a134.4,134.4,0,0,1,16.88-51.59,134,134,0,0,1,15.8-22.46A142.28,142.28,0,0,1,2614,1020.5c1.23-1,2.59-2,3.9-2.94.55-.39,1.11-.77,1.65-1.17l2.82-2c.72-.48,1.47-.95,2.21-1.42l.93-.58a94.3,94.3,0,0,1,13.3-6.89c1.82-.82,3.72-1.51,5.57-2.18l2.86-1c1.9-.59,3.86-1.21,5.86-1.65a95.4,95.4,0,0,1,45.29-.14l3.7,1c1.38.39,2.48.73,3.57,1.11l1.45.51c1.8.62,3.67,1.27,5.46,2l1,.4c.81.32,1.62.65,2.41,1l5,2.33,4.84,2.58a125.36,125.36,0,0,1,23.19,17,149.06,149.06,0,0,1,18.63,20.79,189.72,189.72,0,0,1,25.23,47.55,243,243,0,0,1,12.48,50.85l.81,6.45.7,7c.24,5.28.15,9.49-.07,14.19a158,158,0,0,1-3.71,27.17,132.6,132.6,0,0,1-23.22,50.29,130.33,130.33,0,0,1-18.91,20.12,144,144,0,0,1-22.19,15.59,164.2,164.2,0,0,1-49.37,18.19A159.65,159.65,0,0,1,2657.37,1309.89Zm-64-16.21c28.37,14.29,62.22,18.39,95.65,11.54a162.42,162.42,0,0,0,48.95-18,143.61,143.61,0,0,0,22-15.42,129.9,129.9,0,0,0,18.7-19.91,131.21,131.21,0,0,0,23-49.74,157.36,157.36,0,0,0,3.68-26.92c.21-4.66.31-8.82.07-14l-.69-6.9-.81-6.42a241.35,241.35,0,0,0-12.41-50.55,188.09,188.09,0,0,0-25-47.18,147.55,147.55,0,0,0-18.45-20.6,124.68,124.68,0,0,0-22.91-16.74l-4.79-2.55-4.91-2.31c-.77-.34-1.56-.66-2.36-1l-1-.4c-1.75-.76-3.59-1.39-5.37-2l-1.46-.51c-1.06-.37-2.13-.7-3.48-1.08l-3.67-1a93.49,93.49,0,0,0-44.6.15c-2,.43-3.89,1-5.76,1.62l-2.8.95c-1.82.66-3.71,1.34-5.49,2.14a93.67,93.67,0,0,0-13.11,6.79l-.93.58c-.73.46-1.47.92-2.16,1.39l-2.79,2c-.54.4-1.1.79-1.66,1.18-1.29.91-2.62,1.85-3.82,2.88a141,141,0,0,0-19.74,18.91,132.15,132.15,0,0,0-15.63,22.22,133.29,133.29,0,0,0-16.7,51c-.07.72-.15,1.46-.23,2.19-.16,1.47-.32,3-.4,4.48l-.25,6.72c0,1.47,0,3,.08,4.46l.06,2.22.11,3.34.31,3.29a125.42,125.42,0,0,0,5,26,117.46,117.46,0,0,0,25.31,44.92l4.42,4.64c1.09,1.06,2.26,2.1,3.39,3.12l1.3,1.16.82.73c.5.46,1,.92,1.54,1.35l5.17,4a26.16,26.16,0,0,0,2.35,1.69l1.58,1c1.24.81,2.47,1.62,3.72,2.39s2.59,1.51,3.89,2.19l1.56.83a65.56,65.56,0,0,0,8.26,3.79,201.77,201.77,0,0,1-13.71-15.83c-.78-1-1.53-2-2.25-3.06l-1.21-1.69-1.71-2.36c-.37-.52-.71-1.06-1.06-1.61l-.54-.85-3.11-4.86-2.85-5a137.17,137.17,0,0,1-15.1-41.92,107.73,107.73,0,0,1-1.86-21.69v-2.66l.2-2.73c.06-.68.1-1.35.15-2,.07-1.12.15-2.24.28-3.35l.74-5.3c.17-1.1.39-2.19.61-3.26.14-.67.28-1.34.4-2a111.79,111.79,0,0,1,6.43-20.32,121.9,121.9,0,0,1,10.19-18.52,109.26,109.26,0,0,1,13.36-16.21,105.38,105.38,0,0,1,16-13.44c.92-.71,1.94-1.36,2.93-2l1.38-.89,2.18-1.4c.44-.27.85-.5,1.26-.72l.81-.46a58,58,0,0,1,8.53-3.89c.95-.39,2-.7,2.94-1,.48-.14,1-.29,1.43-.45s1.16-.29,1.7-.43c.92-.24,1.88-.49,2.84-.66a54.71,54.71,0,0,1,9.07-1.21,58,58,0,0,1,17.93,1.88l2.15.62c.86.25,1.63.5,2.28.75.45.18.91.34,1.37.51,1,.37,2.07.75,3.1,1.23l2.16.93,4.34,2.19,2.09,1.16a94.08,94.08,0,0,1,15.86,11.8,111.84,111.84,0,0,1,13.61,15.35,138.57,138.57,0,0,1,11.28,17.92,179,179,0,0,1,8.89,19.76,225.08,225.08,0,0,1,11.34,42.77l.85,5.51.68,5.06c.18,2.72.28,6.58.28,10.12a122,122,0,0,1-1.91,20.94,109.62,109.62,0,0,1-5.46,19.94,104.72,104.72,0,0,1-9.28,18.35,99.1,99.1,0,0,1-13.07,16.27,114.65,114.65,0,0,1-16.32,13.78,141.93,141.93,0,0,1-39.67,19.06,253.7,253.7,0,0,1-44.8,8.8c-7.71.83-15.63,1.44-23.54,1.8-5.08.25-10.1.39-15.42.53Z"/><path class="cls-8" d="M2554.53,1027.79c32.14,31.56,72.75,37.53,92.61,21.91,7.09-5.57,16.36-17.68,18.94-33.81.1-.62.18-1.23.26-1.84a51.65,51.65,0,0,0-8.09-34.4c-30.62-47.24-77.86-71.17-117.27-61.48a76.22,76.22,0,0,0-26.87,12.75,90,90,0,0,0-21.86,23.24,336.82,336.82,0,0,0-52,133.89Z"/><g class="cls-2"><path class="cls-3" d="M2594.66,1040.12a29.89,29.89,0,0,0,19.09-4c1.65-1,11.18-7,13-17.84,1.58-9.53-3.57-17.52-7.09-22.14-26.41-34.6-92.66-73.29-142.6,14.67,0,0,27.35-136.79,124.4-84s59.19,105.79,59.19,105.79S2630.4,1070,2594.66,1040.12Z"/></g><path d="M2554.53,1027.79c.49,1.46,1.08,2.85,1.69,4.26s1.32,2.72,2,4,1.53,2.59,2.32,3.89,1.71,2.49,2.59,3.74a76.48,76.48,0,0,0,47.16,29.26,83.89,83.89,0,0,0,10.17,1.16,72.3,72.3,0,0,0,10.67-.28,65.49,65.49,0,0,0,11.07-2.2,53.74,53.74,0,0,0,11.1-4.71,52.69,52.69,0,0,0,5.3-3.44,59.7,59.7,0,0,0,4.64-3.86,71.2,71.2,0,0,0,7.57-8.26,70.39,70.39,0,0,0,6.07-9.08,71.91,71.91,0,0,0,4.7-9.91,73.44,73.44,0,0,0,3.21-10.61l.57-2.73c.16-.92.3-1.83.44-2.76l.34-2.87.21-2.88a69.64,69.64,0,0,0-2.56-22.7,71.29,71.29,0,0,0-4-10.64c-.82-1.71-1.67-3.4-2.61-5-.45-.84-1-1.64-1.45-2.44l-.73-1.17-.63-1a168.25,168.25,0,0,0-10.83-14.9,171.65,171.65,0,0,0-26.28-26.32,146.39,146.39,0,0,0-32.47-19.89,116.16,116.16,0,0,0-38.34-9.81,96.78,96.78,0,0,0-20.59.65,90.6,90.6,0,0,0-20.22,5.35,94.42,94.42,0,0,0-18.12,9.62q-2.1,1.41-4.11,2.91c-1.35,1-2.7,2.07-4,3.16q-3.89,3.29-7.38,6.89a102.36,102.36,0,0,0-12.32,15.37c-.88,1.34-1.77,2.76-2.56,4.06l-2.21,3.74c-1.45,2.5-2.9,5-4.26,7.56a308,308,0,0,0-14.68,31.36,249.7,249.7,0,0,0-10.81,32.69,206.73,206.73,0,0,0-5.61,33.81,158.93,158.93,0,0,0,.64,34.19c5-10.34,9.42-20.47,14.05-30.39,1.18-2.47,2.26-5,3.47-7.39s2.31-4.9,3.47-7.33,2.3-4.85,3.53-7.24,2.34-4.81,3.56-7.19c2.36-4.77,4.81-9.48,7.27-14.17s5-9.33,7.6-13.88c5.31-9.1,10.86-18,16.84-26.58,1.52-2.14,3-4.3,4.5-6.42l2.29-3.17c.74-1,1.4-1.84,2.12-2.74a84.67,84.67,0,0,1,9.08-9.67q2.41-2.16,5-4c1.69-1.22,3.45-2.46,5.28-3.56a62.41,62.41,0,0,1,11.2-5.38,56.54,56.54,0,0,1,24-3,76.59,76.59,0,0,1,25.17,6.82,106.53,106.53,0,0,1,23.45,14.77A138.74,138.74,0,0,1,2632.19,978c3,3.79,5.89,7.7,8.59,11.77l.51.75.37.58c.22.36.47.72.67,1.1.44.73.83,1.49,1.22,2.26a31.6,31.6,0,0,1,1.86,4.75,33.25,33.25,0,0,1,1.56,9.88l0,1.25-.07,1.23c-.08.87-.2,1.76-.33,2.64a34,34,0,0,1-1.2,5.27,40.69,40.69,0,0,1-4.57,10.09,36.33,36.33,0,0,1-3.12,4.28c-.53.63-1,1.18-1.49,1.65a16.35,16.35,0,0,1-1.45,1.28,20.81,20.81,0,0,1-3.79,2.32,31.25,31.25,0,0,1-4.93,1.74,44.91,44.91,0,0,1-5.75,1,52,52,0,0,1-6.3.23,106.62,106.62,0,0,1-13.5-1.28c-4.67-.73-9.45-1.77-14.36-3s-9.95-2.76-15.16-4.45l-4-1.3c-1.32-.45-2.64-.94-4-1.37s-2.72-1-4.12-1.43S2556,1028.22,2554.53,1027.79Z"/><path d="M2439.89,1090.49l-.33-2.34c-1.44-10.31-1.64-21.22-.65-34.34a208.12,208.12,0,0,1,5.64-33.94,246.65,246.65,0,0,1,10.84-32.78,305.53,305.53,0,0,1,14.71-31.43c1.38-2.58,2.87-5.16,4.27-7.58l2.22-3.75c.79-1.31,1.69-2.74,2.57-4.08a102.46,102.46,0,0,1,12.41-15.48c2.38-2.45,4.87-4.78,7.43-6.94,1.21-1,2.57-2.1,4-3.18s2.69-2,4.14-2.94a96.09,96.09,0,0,1,18.26-9.69,91.61,91.61,0,0,1,20.38-5.39,97.81,97.81,0,0,1,20.74-.66,116.79,116.79,0,0,1,38.57,9.88,146.72,146.72,0,0,1,32.64,20,173.09,173.09,0,0,1,26.39,26.43,168.07,168.07,0,0,1,10.87,15l1.66,2.62c.41.66.81,1.32,1.18,2,.85,1.48,1.71,3.14,2.62,5.07a72,72,0,0,1,4.05,10.76,70.4,70.4,0,0,1,2.59,22.93l-.22,2.89-.34,2.9c-.14,1-.29,1.88-.45,2.8l-.57,2.76a73.09,73.09,0,0,1-3.24,10.72,72.06,72.06,0,0,1-4.75,10,70.73,70.73,0,0,1-6.13,9.18,72.08,72.08,0,0,1-7.64,8.33,55.28,55.28,0,0,1-4.7,3.91,54.1,54.1,0,0,1-16.63,8.27,67.17,67.17,0,0,1-11.19,2.22,71.54,71.54,0,0,1-10.78.29,86.34,86.34,0,0,1-10.26-1.17,76.66,76.66,0,0,1-34.83-16.2,77.47,77.47,0,0,1-12.79-13.35l-.21-.3c-.81-1.15-1.62-2.3-2.4-3.46l-.62-1c-.59-1-1.18-1.93-1.73-2.93-.64-1.18-1.3-2.48-2.06-4.08-.61-1.42-1.22-2.85-1.72-4.34l-.44-1.3,1.32.38c1.33.38,2.58.82,3.8,1.24l1.18.41c1.18.4,2.35.8,3.49,1.22.87.27,1.76.58,2.63.88l5.31,1.78c4.17,1.35,9.67,3.08,15.11,4.43s10,2.33,14.3,3a106.66,106.66,0,0,0,13.41,1.26,49.63,49.63,0,0,0,6.21-.22,45.78,45.78,0,0,0,5.65-1,29.29,29.29,0,0,0,4.8-1.69,20.14,20.14,0,0,0,3.65-2.23,10.39,10.39,0,0,0,1.05-.91l.35-.34c.41-.42.91-1,1.43-1.58a35.2,35.2,0,0,0,3.06-4.2,39.78,39.78,0,0,0,4.49-9.91,32.7,32.7,0,0,0,1.18-5.18c.13-.86.25-1.73.32-2.59l.1-2.43a32.47,32.47,0,0,0-1.52-9.65,30.61,30.61,0,0,0-1.83-4.65c-.37-.75-.76-1.49-1.19-2.22a6.86,6.86,0,0,0-.44-.72l-1.09-1.67c-2.56-3.85-5.43-7.8-8.55-11.72a137.35,137.35,0,0,0-20-20.36,105.28,105.28,0,0,0-23.29-14.67,75.56,75.56,0,0,0-24.93-6.76,55.66,55.66,0,0,0-23.7,3,62.19,62.19,0,0,0-11.07,5.32c-1.84,1.11-3.6,2.35-5.24,3.53s-3.32,2.57-4.91,4a84.3,84.3,0,0,0-9,9.6c-.71.88-1.36,1.72-2.09,2.71l-2.29,3.16q-1.3,1.82-2.56,3.65c-.64.92-1.28,1.85-1.93,2.76-5.47,7.83-11,16.51-16.81,26.53-2.62,4.52-5.13,9.23-7.55,13.78-2.24,4.27-4.83,9.24-7.3,14.23-1.39,2.73-2.52,5-3.56,7.17-.89,1.74-1.72,3.49-2.55,5.23l-1.8,3.75c-.89,1.85-1.79,3.71-2.64,5.59-.7,1.41-1.34,2.82-2,4.23-.49,1-1,2.12-1.48,3.17-1.78,3.81-3.52,7.65-5.29,11.52-2.79,6.15-5.68,12.5-8.76,18.88Zm119.27-193.35a93.42,93.42,0,0,0-13.16.91,89.58,89.58,0,0,0-20.06,5.31,94.58,94.58,0,0,0-18,9.54c-1.42,1-2.8,1.94-4.08,2.9-1.43,1.06-2.76,2.11-4,3.13a100,100,0,0,0-7.32,6.84A101.34,101.34,0,0,0,2480.36,941c-.87,1.33-1.77,2.75-2.54,4l-2.21,3.73c-1.4,2.41-2.88,5-4.24,7.54a302.79,302.79,0,0,0-14.65,31.28,245.86,245.86,0,0,0-10.78,32.6,207.52,207.52,0,0,0-5.6,33.7,160.6,160.6,0,0,0,.33,31.64c2.69-5.62,5.24-11.22,7.71-16.66,1.76-3.88,3.51-7.73,5.29-11.54.51-1.06,1-2.11,1.48-3.16.65-1.42,1.3-2.84,2-4.25.84-1.86,1.74-3.73,2.64-5.59l1.79-3.74c.84-1.76,1.68-3.52,2.57-5.25,1-2.16,2.16-4.45,3.56-7.18,2.47-5,5.07-10,7.28-14.18,2.46-4.65,5-9.37,7.61-13.91,5.87-10.06,11.39-18.77,16.87-26.63.66-.92,1.29-1.84,1.93-2.75.85-1.23,1.7-2.46,2.58-3.68l2.29-3.17c.75-1,1.41-1.86,2.14-2.77a85.38,85.38,0,0,1,9.16-9.76c1.63-1.45,3.32-2.83,5-4.08s3.45-2.47,5.33-3.6a63.73,63.73,0,0,1,11.33-5.44,57.23,57.23,0,0,1,24.31-3,77.32,77.32,0,0,1,25.41,6.88,107,107,0,0,1,23.6,14.88,138.25,138.25,0,0,1,20.17,20.57c3.15,4,6.05,7.93,8.62,11.81l1.11,1.69c.17.26.34.53.48.8.43.72.83,1.5,1.23,2.28a32.75,32.75,0,0,1,1.91,4.86,33.65,33.65,0,0,1,1.58,10.09l-.1,2.53c-.08.9-.2,1.8-.33,2.7a33.85,33.85,0,0,1-1.23,5.38,41.14,41.14,0,0,1-4.64,10.24,34.65,34.65,0,0,1-3.19,4.37c-.53.65-1.06,1.21-1.52,1.69l-.37.35a11.07,11.07,0,0,1-1.17,1,21.16,21.16,0,0,1-3.9,2.38,31.76,31.76,0,0,1-5.05,1.79,47,47,0,0,1-5.86,1,54.92,54.92,0,0,1-6.39.23,108.21,108.21,0,0,1-13.6-1.29c-4.32-.68-9-1.67-14.43-3s-11-3.09-15.2-4.45l-5.34-1.79c-.86-.3-1.73-.61-2.63-.89-1.15-.42-2.31-.82-3.48-1.21l-1.2-.41c-.77-.27-1.55-.54-2.36-.8.38,1,.79,1.93,1.19,2.87.74,1.55,1.38,2.83,2,4,.53,1,1.11,1.91,1.69,2.86l.61,1c.75,1.13,1.55,2.26,2.36,3.41l.2.28a75.82,75.82,0,0,0,46.71,29,85.88,85.88,0,0,0,10.08,1.15,71.08,71.08,0,0,0,10.55-.29A65.51,65.51,0,0,0,2642,1071a52.43,52.43,0,0,0,10.94-4.65,51.26,51.26,0,0,0,5.24-3.4,55.43,55.43,0,0,0,4.57-3.79,72,72,0,0,0,7.5-8.18,69.5,69.5,0,0,0,6-9,71,71,0,0,0,4.66-9.81,72.57,72.57,0,0,0,3.17-10.51l.58-2.72c.15-.89.29-1.8.43-2.73l.34-2.84.21-2.85a68.83,68.83,0,0,0-2.54-22.45,70.49,70.49,0,0,0-4-10.54c-.9-1.89-1.75-3.52-2.59-5-.36-.67-.75-1.3-1.14-1.94l-1.64-2.59A167.58,167.58,0,0,0,2663,953.16,171.12,171.12,0,0,0,2636.85,927a145.62,145.62,0,0,0-32.31-19.79,115.31,115.31,0,0,0-38.1-9.76Q2562.78,897.15,2559.16,897.14Z"/><g class="cls-4"><path d="M2736.6,927.07s-69.55,45.35-77-40.8l-41.72,52.5s39.37,27.68,44.5,74.41l36.36,8.47Z"/></g><path d="M1547.57,1929.85c0,.27,0,0,0,0l0-.26.05-.66c0-.47,0-1,.06-1.5,0-1,0-2.14,0-3.25-.06-2.22-.24-4.5-.5-6.78a94.91,94.91,0,0,0-2.69-13.67,96.42,96.42,0,0,0-11.47-25.68,107.78,107.78,0,0,0-18.66-22,133.09,133.09,0,0,0-11.48-9.38c-4.09-2.88-8.27-5.69-12.68-8.22-17.61-10.19-37.44-17.67-58.07-23l-7.78-1.92-7.86-1.71c-2.61-.61-5.27-1.07-7.92-1.58s-5.29-1-8-1.45l-8-1.3-8.06-1.1-4-.54-4.06-.45-8.12-.88c-21.73-2-43.72-2.93-65.78-2.92s-44.21,1.08-66.38,2.49-44.38,3.19-66.65,5.13-44.57,4.23-67.06,6a811.31,811.31,0,0,1,131.68-30.5c22.38-3.26,44.94-5.51,67.63-7a633.36,633.36,0,0,1,68.52-.88c22.94,1.16,46,3.45,69,8.44a304.72,304.72,0,0,1,34.19,9.47,217.29,217.29,0,0,1,33.17,14.47c5.4,2.88,10.64,6.14,15.8,9.57a170.2,170.2,0,0,1,14.88,11.41,138.53,138.53,0,0,1,13.53,13.35,133.56,133.56,0,0,1,11.77,15.22A127.48,127.48,0,0,1,1578.9,1894a117.56,117.56,0,0,1,3.89,19.24c.37,3.28.63,6.58.73,10,0,1.7.06,3.39,0,5.15,0,.87-.06,1.77-.11,2.7l-.1,1.44-.07.78-.12,1.09Z"/><path class="cls-8" d="M2070.42,1724.89q-22.93,6.67-47.32,12.91c-26.19,6.67-51.56,12.35-76,17.21Z"/><path d="M2075.23,1741.41a127.31,127.31,0,0,1-15.33,4.83c-5.19,1.33-10.43,2.45-15.71,3.42-10.56,2-21.3,3.18-32.06,4.11s-21.56,1.56-32.4,1.81-21.7.18-32.64-.57c9.82-4.89,19.69-9.25,29.5-13.62s19.65-8.48,29.45-12.57l14.68-6.09c4.87-2.1,9.75-4.1,14.68-5.91s9.9-3.47,14.92-4.93a123.43,123.43,0,0,1,15.3-3.52Z"/><g class="cls-4"><path d="M2632.56,1297.27a154.63,154.63,0,0,0,78.11-24.43s-46.42,9.29-90.87-48.13-62.4-101.39-15.6-169.29l-33.45-21.58s-104.67,15-78.71-47.89c0,0-41.86,62.32-53.5,101.33,0,0,28.08,22.56,61.7,61.18,49.68,57.07,52.89,141.81,6,201.19-.86,1.09-1.74,2.18-2.63,3.25a1050.28,1050.28,0,0,1-81.11,87.33c-147.76,141.94-308.57,213-422,249.45a55.27,55.27,0,0,0-37,64.82l.12.51s-38.76,197.18-456.08,60.94c0,0,55.93,54.5,57.36,97.52h532L2061.55,1740S2470.14,1589.17,2632.56,1297.27Z"/></g></svg>